<svg xmlns="http://www.w3.org/2000/svg" viewBox="0 0 900 1200" width="900" height="1200"><title>Mustard Festive Eyeshadow Palette (12 Shyades) — VIRAAS editorial visual</title><defs><linearGradient id="bgF" x1="0" y1="0" x2="0" y2="1"><stop offset="0%" stop-color="#F6F0E6"/><stop offset="100%" stop-color="#DAD2C4"/></linearGradient><filter id="soft"><feGaussianBlur stdDeviation="14"/></filter><filter id="soft2"><feGaussianBlur stdDeviation="5"/></filter></defs><rect width="900" height="1200" fill="url(#bgF)"/><ellipse cx="450" cy="1120" rx="260" ry="18" fill="#000" opacity="0.22" filter="url(#soft)"/><g opacity="0.5"><circle cx="60" cy="120" r="1.6" fill="#E9D6A8" opacity="0.75"/><circle cx="187" cy="317" r="2.5" fill="#E9D6A8" opacity="0.75"/><circle cx="314" cy="214" r="3.4" fill="#E9D6A8" opacity="0.75"/><circle cx="441" cy="411" r="1.6" fill="#E9D6A8" opacity="0.75"/><circle cx="568" cy="308" r="2.5" fill="#E9D6A8" opacity="0.75"/><circle cx="695" cy="205" r="3.4" fill="#E9D6A8" opacity="0.75"/><circle cx="822" cy="402" r="1.6" fill="#E9D6A8" opacity="0.75"/><circle cx="169" cy="299" r="2.5" fill="#E9D6A8" opacity="0.75"/><circle cx="296" cy="196" r="3.4" fill="#E9D6A8" opacity="0.75"/><circle cx="423" cy="393" r="1.6" fill="#E9D6A8" opacity="0.75"/><circle cx="550" cy="290" r="2.5" fill="#E9D6A8" opacity="0.75"/><circle cx="677" cy="187" r="3.4" fill="#E9D6A8" opacity="0.75"/><circle cx="804" cy="384" r="1.6" fill="#E9D6A8" opacity="0.75"/><circle cx="151" cy="281" r="2.5" fill="#E9D6A8" opacity="0.75"/><circle cx="278" cy="178" r="3.4" fill="#E9D6A8" opacity="0.75"/><circle cx="405" cy="375" r="1.6" fill="#E9D6A8" opacity="0.75"/></g><g transform="translate(450 640) scale(1.14) translate(-450 -560)"><ellipse cx="450" cy="1060" rx="230" ry="20" fill="#000" opacity="0.12" filter="url(#soft)"/><g transform="translate(450 540)"><rect x="-220" y="-110" width="440" height="280" rx="18" fill="#171918"/><g><rect x="-200" y="-90" width="86" height="76" rx="10" fill="#D8A21F" opacity="0.6"/><rect x="-100" y="-90" width="86" height="76" rx="10" fill="#D8A21F" opacity="0.8"/><rect x="0" y="-90" width="86" height="76" rx="10" fill="#D8A21F" opacity="1"/><rect x="100" y="-90" width="86" height="76" rx="10" fill="#D8A21F" opacity="0.6"/><rect x="-200" y="0" width="86" height="76" rx="10" fill="#D8A21F" opacity="0.8"/><rect x="-100" y="0" width="86" height="76" rx="10" fill="#D8A21F" opacity="1"/><rect x="0" y="0" width="86" height="76" rx="10" fill="#F3CBA6" opacity="0.6"/><rect x="100" y="0" width="86" height="76" rx="10" fill="#D8A21F" opacity="0.8"/><rect x="-200" y="90" width="86" height="76" rx="10" fill="#be8805" opacity="1"/><rect x="-100" y="90" width="86" height="76" rx="10" fill="#be8805" opacity="0.6"/><rect x="0" y="90" width="86" height="76" rx="10" fill="#be8805" opacity="0.8"/><rect x="100" y="90" width="86" height="76" rx="10" fill="#be8805" opacity="1"/></g><rect x="-220" y="-110" width="440" height="280" rx="18" fill="none" stroke="#F3CBA6" stroke-width="4"/></g></g><g fill="none" stroke="#F3CBA6" stroke-width="3" opacity="0.8"><path d="M120 140 h60 M120 140 v60"/><path d="M720 1060 h60 M780 1000 v60"/></g><g fill="none" stroke="#B7945A" opacity="0.55" stroke-width="1.4"><path d="M60 100 V60 H132"/><path d="M768 60 H840 V100"/><path d="M60 1100 V1140 H132"/><path d="M768 1140 H840 V1100"/></g><text x="450" y="1168" text-anchor="middle" font-family="Georgia, serif" font-size="17" letter-spacing="4.6" fill="#B7945A" opacity="0.85">VIRAAS · BEAUTY</text></svg>