<svg xmlns="http://www.w3.org/2000/svg" viewBox="0 0 900 1200" width="900" height="1200"><title>Champagne Sequin-scattered Silk Bandhgala Jacket — VIRAAS editorial visual</title><defs><pattern id="f-v17a1cd7" patternUnits="userSpaceOnUse" width="24" height="24"><path d="M-8 32 L32 -8" stroke="#FFFDF7" stroke-width="9" opacity="0.12"/><path d="M-8 12 L12 -8" stroke="#FFFDF7" stroke-width="5" opacity="0.08"/></pattern><linearGradient id="bgB" x1="0" y1="0" x2="0" y2="1"><stop offset="0%" stop-color="#F8F1E3"/><stop offset="100%" stop-color="#E4D8C1"/></linearGradient><filter id="soft"><feGaussianBlur stdDeviation="14"/></filter><filter id="soft2"><feGaussianBlur stdDeviation="5"/></filter></defs><rect width="900" height="1200" fill="url(#bgB)"/><ellipse cx="450" cy="1120" rx="250" ry="16" fill="#000" opacity="0.10" filter="url(#soft)"/><g opacity="0.30" stroke="#9A8A6A" fill="none" stroke-width="2"><path d="M150 1080 V470 A150 150 0 0 1 450 320 A150 150 0 0 1 750 470 V1080"/><path d="M200 1080 V480 A100 100 0 0 1 450 355 A100 100 0 0 1 700 480 V1080" stroke-width="1.4"/></g><g transform="translate(450 640) scale(1.14) translate(-450 -560)"><g><ellipse cx="450" cy="230" rx="34" ry="39" fill="#B79A7C"/><path d="M437 256 h26 v46 h-26z" fill="#ab8e70"/><path d="M266 302 q-30 120 -18 240 l14 -2 q-8 -112 18 -224z" fill="#B79A7C" opacity="0.95"/><path d="M634 302 q30 120 18 240 l-14 -2 q8 -112 -18 -224z" fill="#B79A7C" opacity="0.95"/><path d="M260 296 Q252 416 310 506 Q304 546 290 596 L610 596 Q596 546 590 506 Q648 416 640 296 Z" fill="#B79A7C"/></g>
  <clipPath id="cc-v17a1cd7-1"><path d="M316 296 Q450 266 584 296 L596 1046 Q450 1070 304 1046 Z"/></clipPath><path d="M316 296 Q450 266 584 296 L596 1046 Q450 1070 304 1046 Z" fill="#E8D8B0" stroke="#cebe96" stroke-width="1.6" stroke-opacity="0.55"/><g clip-path="url(#cc-v17a1cd7-1)"><path d="M316 296 Q450 266 584 296 L596 1046 Q450 1070 304 1046 Z" fill="url(#f-v17a1cd7)"/></g>
  <path d="M414 296 q36 18 72 0 l0 60 q-36 14 -72 0z" fill="#cebe96"/>
  <path d="M450 356 V1020" fill="none" stroke="#ceaa5c" stroke-width="6" stroke-linecap="round"/>
  <g fill="#C4A052"><circle cx="430" cy="380" r="5"/><circle cx="470" cy="380" r="5"/><circle cx="430" cy="464" r="5"/><circle cx="470" cy="464" r="5"/><circle cx="430" cy="548" r="5"/><circle cx="470" cy="548" r="5"/><circle cx="430" cy="632" r="5"/><circle cx="470" cy="632" r="5"/><circle cx="430" cy="716" r="5"/><circle cx="470" cy="716" r="5"/><circle cx="430" cy="800" r="5"/><circle cx="470" cy="800" r="5"/><circle cx="430" cy="884" r="5"/><circle cx="470" cy="884" r="5"/></g>
  
  <clipPath id="cc-v17a1cd7-2"><path d="M314 300 q-34 10 -38 48 l20 260 l38 -8 z"/></clipPath><path d="M314 300 q-34 10 -38 48 l20 260 l38 -8 z" fill="#d8c8a0" stroke="#cebe96" stroke-width="1.6" stroke-opacity="0.55"/><g clip-path="url(#cc-v17a1cd7-2)"><path d="M314 300 q-34 10 -38 48 l20 260 l38 -8 z" fill="url(#f-v17a1cd7)"/></g>
  <clipPath id="cc-v17a1cd7-3"><path d="M586 300 q34 10 38 48 l-20 260 l-38 -8 z"/></clipPath><path d="M586 300 q34 10 38 48 l-20 260 l-38 -8 z" fill="#d8c8a0" stroke="#cebe96" stroke-width="1.6" stroke-opacity="0.55"/><g clip-path="url(#cc-v17a1cd7-3)"><path d="M586 300 q34 10 38 48 l-20 260 l-38 -8 z" fill="url(#f-v17a1cd7)"/></g>
  <g fill="#2A2E2C" opacity="0.95"><path d="M392 1066 q-16 18 6 24 h46 q10 -12 -4 -24z"/><path d="M508 1066 q16 18 -6 24 h-46 q-10 -12 4 -24z"/></g></g><g fill="none" stroke="#C4A052" stroke-width="3" opacity="0.8"><path d="M120 140 h60 M120 140 v60"/><path d="M720 1060 h60 M780 1000 v60"/></g><g fill="none" stroke="#B7945A" opacity="0.55" stroke-width="1.4"><path d="M60 100 V60 H132"/><path d="M768 60 H840 V100"/><path d="M60 1100 V1140 H132"/><path d="M768 1140 H840 V1100"/></g><text x="450" y="1168" text-anchor="middle" font-family="Georgia, serif" font-size="17" letter-spacing="4.6" fill="#B7945A" opacity="0.85">VIRAAS · JACKETS</text></svg>