<svg xmlns="http://www.w3.org/2000/svg" viewBox="0 0 900 1200" width="900" height="1200"><title>Sand Pearl-detailed Festive Co-ord Suit — VIRAAS editorial visual</title><defs><pattern id="f-vpul11u" patternUnits="userSpaceOnUse" width="24" height="24"><rect width="24" height="24" fill="#FFFDF7" opacity="0.05"/><path d="M0 8 H24 M0 20 H24" stroke="#FFFDF7" stroke-width="0.8" opacity="0.12" fill="none"/></pattern><pattern id="k-vpul11u" patternUnits="userSpaceOnUse" width="30" height="30"><g fill="#9A968C" opacity="0.6"><circle cx="7" cy="7" r="1.8"/><circle cx="22" cy="22" r="1.8"/><path d="M15 12 l3 3 -3 3 -3 -3z"/></g></pattern><radialGradient id="bgA" cx="50%" cy="34%" r="78%"><stop offset="0%" stop-color="#FCF8EF"/><stop offset="100%" stop-color="#EBE2D0"/></radialGradient><filter id="soft"><feGaussianBlur stdDeviation="14"/></filter><filter id="soft2"><feGaussianBlur stdDeviation="5"/></filter></defs><rect width="900" height="1200" fill="url(#bgA)"/><ellipse cx="450" cy="1120" rx="250" ry="16" fill="#000" opacity="0.11" filter="url(#soft)"/><g opacity="0.34" fill="none" stroke="#B7945A" stroke-width="2"><path d="M210 130 q40 62 0 122 q-40 -60 0 -122"/><path d="M450 130 q40 62 0 122 q-40 -60 0 -122"/><path d="M690 130 q40 62 0 122 q-40 -60 0 -122"/></g><circle cx="140" cy="112" r="5" fill="#D95E3F" opacity="0.5"/><circle cx="310" cy="112" r="5" fill="#D95E3F" opacity="0.5"/><circle cx="480" cy="112" r="5" fill="#D95E3F" opacity="0.5"/><circle cx="650" cy="112" r="5" fill="#D95E3F" opacity="0.5"/><circle cx="820" cy="112" r="5" fill="#D95E3F" opacity="0.5"/><g><ellipse cx="450" cy="230" rx="34" ry="39" fill="#DECDB4"/><path d="M437 256 h26 v46 h-26z" fill="#d2c1a8"/><path d="M270 302 q-30 120 -18 240 l14 -2 q-8 -112 18 -224z" fill="#DECDB4" opacity="0.95"/><path d="M630 302 q30 120 18 240 l-14 -2 q8 -112 -18 -224z" fill="#DECDB4" opacity="0.95"/><path d="M264 296 Q256 416 312 506 Q306 546 292 596 L608 596 Q594 546 588 506 Q644 416 636 296 Z" fill="#DECDB4"/></g>
  <clipPath id="cc-vpul11u-1"><path d="M330 296 Q450 272 570 296 L582 660 Q450 682 318 660 Z"/></clipPath><path d="M330 296 Q450 272 570 296 L582 660 Q450 682 318 660 Z" fill="#D8C8A5" stroke="#beae8b" stroke-width="1.6" stroke-opacity="0.55"/><g clip-path="url(#cc-vpul11u-1)"><path d="M330 296 Q450 272 570 296 L582 660 Q450 682 318 660 Z" fill="url(#f-vpul11u)"/><path d="M330 296 Q450 272 570 296 L582 660 Q450 682 318 660 Z" fill="url(#k-vpul11u)" opacity="0.72"/></g>
  <path d="M450 296 V430" fill="none" stroke="#9A968C" stroke-width="5" stroke-linecap="round"/><path d="M336 636 Q450 658 564 636" fill="none" stroke="url(#k-vpul11u)" stroke-width="18" stroke-linecap="round" opacity="0.95"/>
  <clipPath id="cc-vpul11u-2"><path d="M330 664 Q450 686 570 664 L578 1040 Q450 1060 322 1040 Z"/></clipPath><path d="M330 664 Q450 686 570 664 L578 1040 Q450 1060 322 1040 Z" fill="#beae8b" stroke="#beae8b" stroke-width="1.6" stroke-opacity="0.55"/><g clip-path="url(#cc-vpul11u-2)"><path d="M330 664 Q450 686 570 664 L578 1040 Q450 1060 322 1040 Z" fill="url(#f-vpul11u)"/><path d="M330 664 Q450 686 570 664 L578 1040 Q450 1060 322 1040 Z" fill="url(#k-vpul11u)" opacity="0.72"/></g>
  <g stroke="#aeaaa0" stroke-width="3" opacity="0.85" fill="none"><path d="M362 700 h22 M516 700 h22"/></g>
  <g fill="#2A2E2C" opacity="0.95"><path d="M392 1058 q-16 18 6 24 h46 q10 -12 -4 -24z"/><path d="M508 1058 q16 18 -6 24 h-46 q-10 -12 4 -24z"/></g><g fill="none" stroke="#B7945A" opacity="0.55" stroke-width="1.4"><path d="M60 100 V60 H132"/><path d="M768 60 H840 V100"/><path d="M60 1100 V1140 H132"/><path d="M768 1140 H840 V1100"/></g><text x="450" y="1168" text-anchor="middle" font-family="Georgia, serif" font-size="17" letter-spacing="4.6" fill="#B7945A" opacity="0.85">VIRAAS · INDOWESTERN</text></svg>