<svg xmlns="http://www.w3.org/2000/svg" viewBox="0 0 900 1200" width="900" height="1200"><title>Olive Pearl-detailed Long Coat Kurta Set — VIRAAS editorial visual</title><defs><pattern id="f-v1f5edxu" patternUnits="userSpaceOnUse" width="24" height="24"><path d="M0 6 H24 M0 14 H24 M0 22 H24" stroke="#a3a26a" stroke-width="0.8" opacity="0.18" fill="none"/><path d="M6 0 V24 M14 0 V24 M22 0 V24" stroke="#a3a26a" stroke-width="0.6" opacity="0.13" fill="none"/></pattern><pattern id="k-v1f5edxu" patternUnits="userSpaceOnUse" width="30" height="30"><g fill="#4A3226" opacity="0.6"><circle cx="7" cy="7" r="1.8"/><circle cx="22" cy="22" r="1.8"/><path d="M15 12 l3 3 -3 3 -3 -3z"/></g></pattern><radialGradient id="bgA" cx="50%" cy="34%" r="78%"><stop offset="0%" stop-color="#FCF8EF"/><stop offset="100%" stop-color="#EBE2D0"/></radialGradient><filter id="soft"><feGaussianBlur stdDeviation="14"/></filter><filter id="soft2"><feGaussianBlur stdDeviation="5"/></filter></defs><rect width="900" height="1200" fill="url(#bgA)"/><ellipse cx="450" cy="1120" rx="250" ry="16" fill="#000" opacity="0.11" filter="url(#soft)"/><g opacity="0.34" fill="none" stroke="#B7945A" stroke-width="2"><path d="M210 130 q40 62 0 122 q-40 -60 0 -122"/><path d="M450 130 q40 62 0 122 q-40 -60 0 -122"/><path d="M690 130 q40 62 0 122 q-40 -60 0 -122"/></g><circle cx="140" cy="112" r="5" fill="#D95E3F" opacity="0.5"/><circle cx="310" cy="112" r="5" fill="#D95E3F" opacity="0.5"/><circle cx="480" cy="112" r="5" fill="#D95E3F" opacity="0.5"/><circle cx="650" cy="112" r="5" fill="#D95E3F" opacity="0.5"/><circle cx="820" cy="112" r="5" fill="#D95E3F" opacity="0.5"/><g><ellipse cx="450" cy="230" rx="34" ry="39" fill="#C9B092"/><path d="M437 256 h26 v46 h-26z" fill="#bda486"/><path d="M264 302 q-30 120 -18 240 l14 -2 q-8 -112 18 -224z" fill="#C9B092" opacity="0.95"/><path d="M636 302 q30 120 18 240 l-14 -2 q8 -112 -18 -224z" fill="#C9B092" opacity="0.95"/><path d="M258 296 Q250 416 308 506 Q302 546 288 596 L612 596 Q598 546 592 506 Q650 416 642 296 Z" fill="#C9B092"/></g>
  <clipPath id="cc-v1f5edxu-1"><path d="M312 296 Q450 264 588 296 L604 1046 Q450 1074 296 1046 Z"/></clipPath><path d="M312 296 Q450 264 588 296 L604 1046 Q450 1074 296 1046 Z" fill="#7B7A42" stroke="#616028" stroke-width="1.6" stroke-opacity="0.55"/><g clip-path="url(#cc-v1f5edxu-1)"><path d="M312 296 Q450 264 588 296 L604 1046 Q450 1074 296 1046 Z" fill="url(#f-v1f5edxu)"/><path d="M312 296 Q450 264 588 296 L604 1046 Q450 1074 296 1046 Z" fill="url(#k-v1f5edxu)" opacity="0.72"/></g>
  <path d="M450 300 q-40 40 -8 90 q20 30 -2 70 q-20 34 4 70" stroke="#4A3226" stroke-width="6" fill="none"/>
  <g fill="#4A3226"><circle cx="420" cy="340" r="5.4"/><circle cx="474" cy="418" r="5.4"/><circle cx="420" cy="496" r="5.4"/><circle cx="474" cy="574" r="5.4"/><circle cx="420" cy="652" r="5.4"/><circle cx="474" cy="730" r="5.4"/><circle cx="420" cy="808" r="5.4"/><circle cx="474" cy="886" r="5.4"/><circle cx="420" cy="964" r="5.4"/></g>
  <path d="M330 320 Q450 300 570 320 L576 520 Q450 546 324 520 Z" fill="none" stroke="url(#k-v1f5edxu)" stroke-width="26" stroke-linecap="round" opacity="0.95"/>
  <path d="M306 980 Q450 1030 594 980" fill="none" stroke="url(#k-v1f5edxu)" stroke-width="34" stroke-linecap="round" opacity="0.95"/>
  <path d="M318 560 L310 1030" fill="none" stroke="#4A3226" stroke-width="7" stroke-linecap="round"/><path d="M582 560 L590 1030" fill="none" stroke="#4A3226" stroke-width="7" stroke-linecap="round"/>
  <clipPath id="cc-v1f5edxu-2"><path d="M312 298 q-36 10 -40 50 l22 280 l40 -10 z"/></clipPath><path d="M312 298 q-36 10 -40 50 l22 280 l40 -10 z" fill="#616028" stroke="#616028" stroke-width="1.6" stroke-opacity="0.55"/><g clip-path="url(#cc-v1f5edxu-2)"><path d="M312 298 q-36 10 -40 50 l22 280 l40 -10 z" fill="url(#f-v1f5edxu)"/><path d="M312 298 q-36 10 -40 50 l22 280 l40 -10 z" fill="url(#k-v1f5edxu)" opacity="0.72"/></g>
  <clipPath id="cc-v1f5edxu-3"><path d="M588 298 q36 10 40 50 l-22 280 l-40 -10 z"/></clipPath><path d="M588 298 q36 10 40 50 l-22 280 l-40 -10 z" fill="#616028" stroke="#616028" stroke-width="1.6" stroke-opacity="0.55"/><g clip-path="url(#cc-v1f5edxu-3)"><path d="M588 298 q36 10 40 50 l-22 280 l-40 -10 z" fill="url(#f-v1f5edxu)"/><path d="M588 298 q36 10 40 50 l-22 280 l-40 -10 z" fill="url(#k-v1f5edxu)" opacity="0.72"/></g>
  <g fill="#2A2E2C" opacity="0.95"><path d="M392 1068 q-16 18 6 24 h46 q10 -12 -4 -24z"/><path d="M508 1068 q16 18 -6 24 h-46 q-10 -12 4 -24z"/></g><g fill="none" stroke="#D8BC85" opacity="0.55" stroke-width="1.4"><path d="M60 100 V60 H132"/><path d="M768 60 H840 V100"/><path d="M60 1100 V1140 H132"/><path d="M768 1140 H840 V1100"/></g><text x="450" y="1168" text-anchor="middle" font-family="Georgia, serif" font-size="17" letter-spacing="4.6" fill="#D8BC85" opacity="0.85">VIRAAS · INDOWESTERN</text></svg>