<svg xmlns="http://www.w3.org/2000/svg" viewBox="0 0 900 1200" width="900" height="1200"><title>Sand Block-printed Pocket Square Set — VIRAAS editorial visual</title><defs><pattern id="f-v1vhu6x2" patternUnits="userSpaceOnUse" width="24" height="24"><path d="M-8 32 L32 -8" stroke="#FFFDF7" stroke-width="9" opacity="0.12"/><path d="M-8 12 L12 -8" stroke="#FFFDF7" stroke-width="5" opacity="0.08"/></pattern><pattern id="k-v1vhu6x2" patternUnits="userSpaceOnUse" width="44" height="44"><g opacity="0.7" fill="none" stroke="#7E6F52" stroke-width="1.5"><circle cx="22" cy="22" r="10"/><circle cx="22" cy="22" r="4.4"/><path d="M22 6 v6 M22 32 v6 M6 22 h6 M32 22 h6"/></g></pattern><linearGradient id="bgC" x1="0" y1="0" x2="1" y2="1"><stop offset="0%" stop-color="#F4ECDC"/><stop offset="100%" stop-color="#DFD2B9"/></linearGradient><filter id="soft"><feGaussianBlur stdDeviation="14"/></filter><filter id="soft2"><feGaussianBlur stdDeviation="5"/></filter></defs><rect width="900" height="1200" fill="url(#bgC)"/><ellipse cx="450" cy="1120" rx="250" ry="16" fill="#000" opacity="0.10" filter="url(#soft)"/><g opacity="0.30" stroke="#9A8A6A" fill="none" stroke-width="2"><path d="M150 1080 V470 A150 150 0 0 1 450 320 A150 150 0 0 1 750 470 V1080"/><path d="M200 1080 V480 A100 100 0 0 1 450 355 A100 100 0 0 1 700 480 V1080" stroke-width="1.4"/></g><ellipse cx="450" cy="1060" rx="230" ry="20" fill="#000" opacity="0.12" filter="url(#soft)"/><g transform="translate(450 580)"><path d="M-160 60 q60 -140 160 -140 q100 0 160 140 z" fill="#D8C8A5" stroke="#beae8b" stroke-width="3"/><g><path d="M-100 40 l10 -100 10 100z" fill="#c8b895" opacity="0.8"/><path d="M-50 40 l10 -100 10 100z" fill="#c8b895" opacity="0.8"/><path d="M0 40 l10 -100 10 100z" fill="#c8b895" opacity="0.8"/><path d="M50 40 l10 -100 10 100z" fill="#c8b895" opacity="0.8"/><path d="M100 40 l10 -100 10 100z" fill="#c8b895" opacity="0.8"/></g><rect x="-180" y="60" width="360" height="40" rx="8" fill="#9A968C" opacity="0.9"/></g><g fill="none" stroke="#B7945A" opacity="0.55" stroke-width="1.4"><path d="M60 100 V60 H132"/><path d="M768 60 H840 V100"/><path d="M60 1100 V1140 H132"/><path d="M768 1140 H840 V1100"/></g><text x="450" y="1168" text-anchor="middle" font-family="Georgia, serif" font-size="17" letter-spacing="4.6" fill="#B7945A" opacity="0.85">VIRAAS · ACCESSORIES</text></svg>