<svg xmlns="http://www.w3.org/2000/svg" viewBox="0 0 900 1200" width="900" height="1200"><title>Antique Gold Stone-set Embroidered Sherwani — VIRAAS editorial visual</title><defs><pattern id="f-vyiy27a" patternUnits="userSpaceOnUse" width="24" height="24"><path d="M-8 32 L32 -8" stroke="#FFFDF7" stroke-width="9" opacity="0.12"/><path d="M-8 12 L12 -8" stroke="#FFFDF7" stroke-width="5" opacity="0.08"/></pattern><pattern id="k-vyiy27a" patternUnits="userSpaceOnUse" width="40" height="40"><g opacity="0.92"><path d="M20 4 l6 10 -6 10 -6 -10z" fill="#5C5C33" opacity="0.72"/><circle cx="20" cy="14" r="1.9" fill="#FFF7E3" opacity="0.8"/><path d="M6 30 q8 -7 14 0 q-6 8 -14 0z" fill="#5C5C33" opacity="0.45"/><path d="M28 32 h10 M33 27 v10" stroke="#5C5C33" stroke-width="1.2" opacity="0.6"/></g></pattern><linearGradient id="bgE" x1="0" y1="0" x2="0" y2="1"><stop offset="0%" stop-color="#F0EFE6"/><stop offset="100%" stop-color="#DCDCCB"/></linearGradient><filter id="soft"><feGaussianBlur stdDeviation="14"/></filter><filter id="soft2"><feGaussianBlur stdDeviation="5"/></filter></defs><rect width="900" height="1200" fill="url(#bgE)"/><ellipse cx="450" cy="1120" rx="250" ry="16" fill="#000" opacity="0.10" filter="url(#soft)"/><g opacity="0.42"><circle cx="96" cy="116" r="12" fill="#E39B45"/><circle cx="96" cy="116" r="5" fill="#C8711F"/><circle cx="168" cy="130" r="12" fill="#E39B45"/><circle cx="168" cy="130" r="5" fill="#C8711F"/><circle cx="240" cy="144" r="12" fill="#E39B45"/><circle cx="240" cy="144" r="5" fill="#C8711F"/><circle cx="312" cy="116" r="12" fill="#E39B45"/><circle cx="312" cy="116" r="5" fill="#C8711F"/><circle cx="384" cy="130" r="12" fill="#E39B45"/><circle cx="384" cy="130" r="5" fill="#C8711F"/><circle cx="456" cy="144" r="12" fill="#E39B45"/><circle cx="456" cy="144" r="5" fill="#C8711F"/><circle cx="528" cy="116" r="12" fill="#E39B45"/><circle cx="528" cy="116" r="5" fill="#C8711F"/><circle cx="600" cy="130" r="12" fill="#E39B45"/><circle cx="600" cy="130" r="5" fill="#C8711F"/><circle cx="672" cy="144" r="12" fill="#E39B45"/><circle cx="672" cy="144" r="5" fill="#C8711F"/><circle cx="744" cy="116" r="12" fill="#E39B45"/><circle cx="744" cy="116" r="5" fill="#C8711F"/><circle cx="816" cy="130" r="12" fill="#E39B45"/><circle cx="816" cy="130" r="5" fill="#C8711F"/><path d="M96 116 Q450 176 804 116" stroke="#A89163" stroke-width="2" fill="none"/></g><g transform="translate(450 640) scale(1.14) translate(-450 -560)"><g><ellipse cx="450" cy="230" rx="34" ry="39" fill="#C9B092"/><path d="M437 256 h26 v46 h-26z" fill="#bda486"/><path d="M264 302 q-30 120 -18 240 l14 -2 q-8 -112 18 -224z" fill="#C9B092" opacity="0.95"/><path d="M636 302 q30 120 18 240 l-14 -2 q8 -112 -18 -224z" fill="#C9B092" opacity="0.95"/><path d="M258 296 Q250 416 308 506 Q302 546 288 596 L612 596 Q598 546 592 506 Q650 416 642 296 Z" fill="#C9B092"/></g>
  <clipPath id="cc-vyiy27a-1"><path d="M312 296 Q450 264 588 296 L604 1046 Q450 1074 296 1046 Z"/></clipPath><path d="M312 296 Q450 264 588 296 L604 1046 Q450 1074 296 1046 Z" fill="#C4A052" stroke="#aa8638" stroke-width="1.6" stroke-opacity="0.55"/><g clip-path="url(#cc-vyiy27a-1)"><path d="M312 296 Q450 264 588 296 L604 1046 Q450 1074 296 1046 Z" fill="url(#f-vyiy27a)"/><path d="M312 296 Q450 264 588 296 L604 1046 Q450 1074 296 1046 Z" fill="url(#k-vyiy27a)" opacity="0.72"/></g>
  <path d="M450 300 q-40 40 -8 90 q20 30 -2 70 q-20 34 4 70" stroke="#5C5C33" stroke-width="6" fill="none"/>
  <g fill="#5C5C33"><circle cx="420" cy="340" r="5.4"/><circle cx="474" cy="418" r="5.4"/><circle cx="420" cy="496" r="5.4"/><circle cx="474" cy="574" r="5.4"/><circle cx="420" cy="652" r="5.4"/><circle cx="474" cy="730" r="5.4"/><circle cx="420" cy="808" r="5.4"/><circle cx="474" cy="886" r="5.4"/><circle cx="420" cy="964" r="5.4"/></g>
  <path d="M330 320 Q450 300 570 320 L576 520 Q450 546 324 520 Z" fill="none" stroke="url(#k-vyiy27a)" stroke-width="26" stroke-linecap="round" opacity="0.95"/>
  <path d="M306 980 Q450 1030 594 980" fill="none" stroke="url(#k-vyiy27a)" stroke-width="34" stroke-linecap="round" opacity="0.95"/>
  <path d="M318 560 L310 1030" fill="none" stroke="#5C5C33" stroke-width="7" stroke-linecap="round"/><path d="M582 560 L590 1030" fill="none" stroke="#5C5C33" stroke-width="7" stroke-linecap="round"/>
  <clipPath id="cc-vyiy27a-2"><path d="M312 298 q-36 10 -40 50 l22 280 l40 -10 z"/></clipPath><path d="M312 298 q-36 10 -40 50 l22 280 l40 -10 z" fill="#aa8638" stroke="#aa8638" stroke-width="1.6" stroke-opacity="0.55"/><g clip-path="url(#cc-vyiy27a-2)"><path d="M312 298 q-36 10 -40 50 l22 280 l40 -10 z" fill="url(#f-vyiy27a)"/><path d="M312 298 q-36 10 -40 50 l22 280 l40 -10 z" fill="url(#k-vyiy27a)" opacity="0.72"/></g>
  <clipPath id="cc-vyiy27a-3"><path d="M588 298 q36 10 40 50 l-22 280 l-40 -10 z"/></clipPath><path d="M588 298 q36 10 40 50 l-22 280 l-40 -10 z" fill="#aa8638" stroke="#aa8638" stroke-width="1.6" stroke-opacity="0.55"/><g clip-path="url(#cc-vyiy27a-3)"><path d="M588 298 q36 10 40 50 l-22 280 l-40 -10 z" fill="url(#f-vyiy27a)"/><path d="M588 298 q36 10 40 50 l-22 280 l-40 -10 z" fill="url(#k-vyiy27a)" opacity="0.72"/></g>
  <g fill="#2A2E2C" opacity="0.95"><path d="M392 1068 q-16 18 6 24 h46 q10 -12 -4 -24z"/><path d="M508 1068 q16 18 -6 24 h-46 q-10 -12 4 -24z"/></g></g><g fill="none" stroke="#5C5C33" stroke-width="3" opacity="0.8"><path d="M120 140 h60 M120 140 v60"/><path d="M720 1060 h60 M780 1000 v60"/></g><g fill="none" stroke="#B7945A" opacity="0.55" stroke-width="1.4"><path d="M60 100 V60 H132"/><path d="M768 60 H840 V100"/><path d="M60 1100 V1140 H132"/><path d="M768 1140 H840 V1100"/></g><text x="450" y="1168" text-anchor="middle" font-family="Georgia, serif" font-size="17" letter-spacing="4.6" fill="#B7945A" opacity="0.85">VIRAAS · JACKETS</text></svg>