<svg xmlns="http://www.w3.org/2000/svg" viewBox="0 0 900 1200" width="900" height="1200"><title>Fuchsia Kamdani-fine Weave Festive Ethnic Shirt — VIRAAS editorial visual</title><defs><pattern id="f-v16k10jg" patternUnits="userSpaceOnUse" width="24" height="24"><path d="M0 6 H24 M0 14 H24 M0 22 H24" stroke="#ea6db7" stroke-width="0.8" opacity="0.18" fill="none"/><path d="M6 0 V24 M14 0 V24 M22 0 V24" stroke="#ea6db7" stroke-width="0.6" opacity="0.13" fill="none"/></pattern><pattern id="k-v16k10jg" patternUnits="userSpaceOnUse" width="30" height="30"><g fill="#3FA34D" opacity="0.6"><circle cx="7" cy="7" r="1.8"/><circle cx="22" cy="22" r="1.8"/><path d="M15 12 l3 3 -3 3 -3 -3z"/></g></pattern><linearGradient id="bgE" x1="0" y1="0" x2="0" y2="1"><stop offset="0%" stop-color="#F0EFE6"/><stop offset="100%" stop-color="#DCDCCB"/></linearGradient><filter id="soft"><feGaussianBlur stdDeviation="14"/></filter><filter id="soft2"><feGaussianBlur stdDeviation="5"/></filter></defs><rect width="900" height="1200" fill="url(#bgE)"/><ellipse cx="450" cy="1120" rx="250" ry="16" fill="#000" opacity="0.10" filter="url(#soft)"/><g><ellipse cx="450" cy="234" rx="34" ry="39" fill="#C9B092"/><path d="M437 260 h26 v46 h-26z" fill="#bda486"/><path d="M284 306 q-30 120 -18 240 l14 -2 q-8 -112 18 -224z" fill="#C9B092" opacity="0.95"/><path d="M616 306 q30 120 18 240 l-14 -2 q8 -112 -18 -224z" fill="#C9B092" opacity="0.95"/><path d="M278 300 Q270 420 334 510 Q328 550 300 600 L600 600 Q572 550 566 510 Q630 420 622 300 Z" fill="#C9B092"/></g>
  <clipPath id="cc-v16k10jg-1"><path d="M332 300 Q450 268 568 300 L588 760 Q450 792 312 760 Z"/></clipPath><path d="M332 300 Q450 268 568 300 L588 760 Q450 792 312 760 Z" fill="#C2458F" stroke="#a82b75" stroke-width="1.6" stroke-opacity="0.55"/><g clip-path="url(#cc-v16k10jg-1)"><path d="M332 300 Q450 268 568 300 L588 760 Q450 792 312 760 Z" fill="url(#f-v16k10jg)"/><path d="M332 300 Q450 268 568 300 L588 760 Q450 792 312 760 Z" fill="url(#k-v16k10jg)" opacity="0.72"/></g>
  <path d="M450 300 V470" fill="none" stroke="#3FA34D" stroke-width="6" stroke-linecap="round"/>
  <circle cx="450" cy="330" r="3.4" fill="#3FA34D"/><circle cx="450" cy="370" r="3.4" fill="#3FA34D"/><circle cx="450" cy="410" r="3.4" fill="#3FA34D"/><circle cx="450" cy="450" r="3.4" fill="#3FA34D"/>
  <clipPath id="cc-v16k10jg-2"><path d="M330 302 q-30 6 -34 40 l16 240 l34 -6 z"/></clipPath><path d="M330 302 q-30 6 -34 40 l16 240 l34 -6 z" fill="#dc5fa9" stroke="#a82b75" stroke-width="1.6" stroke-opacity="0.55"/><g clip-path="url(#cc-v16k10jg-2)"><path d="M330 302 q-30 6 -34 40 l16 240 l34 -6 z" fill="url(#f-v16k10jg)"/><path d="M330 302 q-30 6 -34 40 l16 240 l34 -6 z" fill="url(#k-v16k10jg)" opacity="0.72"/></g>
  <clipPath id="cc-v16k10jg-3"><path d="M570 302 q30 6 34 40 l-16 240 l-34 -6 z"/></clipPath><path d="M570 302 q30 6 34 40 l-16 240 l-34 -6 z" fill="#dc5fa9" stroke="#a82b75" stroke-width="1.6" stroke-opacity="0.55"/><g clip-path="url(#cc-v16k10jg-3)"><path d="M570 302 q30 6 34 40 l-16 240 l-34 -6 z" fill="url(#f-v16k10jg)"/><path d="M570 302 q30 6 34 40 l-16 240 l-34 -6 z" fill="url(#k-v16k10jg)" opacity="0.72"/></g>
  <clipPath id="cc-v16k10jg-4"><path d="M338 760 Q450 788 562 760 L584 1054 Q450 1078 316 1054 Z"/></clipPath><path d="M338 760 Q450 788 562 760 L584 1054 Q450 1078 316 1054 Z" fill="#C2458F" stroke="#a82b75" stroke-width="1.6" stroke-opacity="0.55"/><g clip-path="url(#cc-v16k10jg-4)"><path d="M338 760 Q450 788 562 760 L584 1054 Q450 1078 316 1054 Z" fill="url(#f-v16k10jg)"/><path d="M338 760 Q450 788 562 760 L584 1054 Q450 1078 316 1054 Z" fill="url(#k-v16k10jg)" opacity="0.72"/></g>
  <clipPath id="cc-v16k10jg-5"><path d="M568 300 Q648 360 690 520 Q720 660 690 800 L636 760 Q654 600 606 460 Q576 372 540 340Z"/></clipPath><path d="M568 300 Q648 360 690 520 Q720 660 690 800 L636 760 Q654 600 606 460 Q576 372 540 340Z" fill="#dc5fa9" stroke="#a82b75" stroke-width="1.6" stroke-opacity="0.55"/><g clip-path="url(#cc-v16k10jg-5)"><path d="M568 300 Q648 360 690 520 Q720 660 690 800 L636 760 Q654 600 606 460 Q576 372 540 340Z" fill="url(#f-v16k10jg)"/><path d="M568 300 Q648 360 690 520 Q720 660 690 800 L636 760 Q654 600 606 460 Q576 372 540 340Z" fill="url(#k-v16k10jg)" opacity="0.72"/></g>
  <path d="M568 300 Q648 360 690 520 Q720 660 690 800" fill="none" stroke="#3FA34D" stroke-width="8" stroke-linecap="round"/>
  <path d="M360 720 Q450 700 540 722" fill="none" stroke="url(#k-v16k10jg)" stroke-width="20" stroke-linecap="round" opacity="0.95"/>
  <g><path d="M424 1040 q-6 120 -10 4 l24 0 q4 -5 6 -10z" fill="#C9B092"/><path d="M476 1040 q6 120 10 4 l-24 0 q-4 -5 -6 -10z" fill="#C9B092"/></g><g fill="#2A2E2C" opacity="0.95"><path d="M392 1072 q-16 18 6 24 h46 q10 -12 -4 -24z"/><path d="M508 1072 q16 18 -6 24 h-46 q-10 -12 4 -24z"/></g><g><g><circle cx="416" cy="234" r="4" fill="#3FA34D"/><path d="M416 240 l0 10" stroke="#3FA34D" stroke-width="2"/><path d="M409 256 Q416 274 423 256 Q416 250 409 256z" fill="#3FA34D" opacity="0.9"/></g><g><circle cx="484" cy="234" r="4" fill="#3FA34D"/><path d="M484 240 l0 10" stroke="#3FA34D" stroke-width="2"/><path d="M477 256 Q484 274 491 256 Q484 250 477 256z" fill="#3FA34D" opacity="0.9"/></g></g><g fill="none" stroke="#D8BC85" opacity="0.55" stroke-width="1.4"><path d="M60 100 V60 H132"/><path d="M768 60 H840 V100"/><path d="M60 1100 V1140 H132"/><path d="M768 1140 H840 V1100"/></g><text x="450" y="1168" text-anchor="middle" font-family="Georgia, serif" font-size="17" letter-spacing="4.6" fill="#D8BC85" opacity="0.85">VIRAAS · ETHNIC SHIRTS</text></svg>