<svg xmlns="http://www.w3.org/2000/svg" viewBox="0 0 900 1200" width="900" height="1200"><title>Rose Gold Stone-set Ethnic-Dial Watch — VIRAAS editorial visual</title><defs><pattern id="k-v1xxql6t" patternUnits="userSpaceOnUse" width="40" height="40"><g opacity="0.92"><path d="M20 4 l6 10 -6 10 -6 -10z" fill="#E8D8B0" opacity="0.72"/><circle cx="20" cy="14" r="1.9" fill="#FFF7E3" opacity="0.8"/><path d="M6 30 q8 -7 14 0 q-6 8 -14 0z" fill="#E8D8B0" opacity="0.45"/><path d="M28 32 h10 M33 27 v10" stroke="#E8D8B0" stroke-width="1.2" opacity="0.6"/></g></pattern><linearGradient id="bgF" x1="0" y1="0" x2="0" y2="1"><stop offset="0%" stop-color="#F6F0E6"/><stop offset="100%" stop-color="#DAD2C4"/></linearGradient><filter id="soft"><feGaussianBlur stdDeviation="14"/></filter><filter id="soft2"><feGaussianBlur stdDeviation="5"/></filter></defs><rect width="900" height="1200" fill="url(#bgF)"/><ellipse cx="450" cy="1120" rx="250" ry="16" fill="#000" opacity="0.10" filter="url(#soft)"/><g opacity="0.5"><g opacity="0.7"><path d="M714 1040 q26 22 52 0 q-26 12 -52 0z" fill="#C08552"/><ellipse cx="740" cy="1034" rx="4" ry="10" fill="#F0C263" opacity="0.9"/></g><g opacity="0.7"><path d="M124 1060 q26 22 52 0 q-26 12 -52 0z" fill="#C08552"/><ellipse cx="150" cy="1054" rx="4" ry="10" fill="#F0C263" opacity="0.9"/></g></g><ellipse cx="450" cy="1060" rx="230" ry="20" fill="#000" opacity="0.12" filter="url(#soft)"/><g transform="translate(450 560)"><path d="M-42 -190 q42 -18 84 0 l0 380 q-42 18 -84 0z" fill="#be8771" opacity="0.85"/><g><rect x="-26" y="-20" width="52" height="14" rx="6" fill="#c8917b" opacity="0.7"/><rect x="-26" y="6" width="52" height="14" rx="6" fill="#c8917b" opacity="0.7"/><rect x="-26" y="32" width="52" height="14" rx="6" fill="#c8917b" opacity="0.7"/><rect x="-26" y="58" width="52" height="14" rx="6" fill="#c8917b" opacity="0.7"/><rect x="-26" y="84" width="52" height="14" rx="6" fill="#c8917b" opacity="0.7"/><rect x="-26" y="110" width="52" height="14" rx="6" fill="#c8917b" opacity="0.7"/><rect x="-26" y="136" width="52" height="14" rx="6" fill="#c8917b" opacity="0.7"/><rect x="-26" y="162" width="52" height="14" rx="6" fill="#c8917b" opacity="0.7"/><rect x="-26" y="188" width="52" height="14" rx="6" fill="#c8917b" opacity="0.7"/></g><circle r="104" fill="#E8D8B0"/><circle r="86" fill="#F7F5F0"/><g stroke="#171918" stroke-width="4" fill="none"><path d="M0 -60 v60 l40 20"/></g><g><g transform="rotate(0)"><rect x="-2" y="-80" width="4" height="14" fill="#171918" opacity="0.7"/></g><g transform="rotate(30)"><rect x="-2" y="-80" width="4" height="14" fill="#171918" opacity="0.7"/></g><g transform="rotate(60)"><rect x="-2" y="-80" width="4" height="14" fill="#171918" opacity="0.7"/></g><g transform="rotate(90)"><rect x="-2" y="-80" width="4" height="14" fill="#171918" opacity="0.7"/></g><g transform="rotate(120)"><rect x="-2" y="-80" width="4" height="14" fill="#171918" opacity="0.7"/></g><g transform="rotate(150)"><rect x="-2" y="-80" width="4" height="14" fill="#171918" opacity="0.7"/></g><g transform="rotate(180)"><rect x="-2" y="-80" width="4" height="14" fill="#171918" opacity="0.7"/></g><g transform="rotate(210)"><rect x="-2" y="-80" width="4" height="14" fill="#171918" opacity="0.7"/></g><g transform="rotate(240)"><rect x="-2" y="-80" width="4" height="14" fill="#171918" opacity="0.7"/></g><g transform="rotate(270)"><rect x="-2" y="-80" width="4" height="14" fill="#171918" opacity="0.7"/></g><g transform="rotate(300)"><rect x="-2" y="-80" width="4" height="14" fill="#171918" opacity="0.7"/></g><g transform="rotate(330)"><rect x="-2" y="-80" width="4" height="14" fill="#171918" opacity="0.7"/></g></g></g><g fill="none" stroke="#B7945A" opacity="0.55" stroke-width="1.4"><path d="M60 100 V60 H132"/><path d="M768 60 H840 V100"/><path d="M60 1100 V1140 H132"/><path d="M768 1140 H840 V1100"/></g><text x="450" y="1168" text-anchor="middle" font-family="Georgia, serif" font-size="17" letter-spacing="4.6" fill="#B7945A" opacity="0.85">VIRAAS · WATCHES</text></svg>