<svg xmlns="http://www.w3.org/2000/svg" viewBox="0 0 900 1200" width="900" height="1200"><title>Ivory Chikankari-worked Threadwork Day Bag — VIRAAS editorial visual</title><defs><pattern id="f-vyqftzy" patternUnits="userSpaceOnUse" width="24" height="24"><path d="M0 6 H24 M0 14 H24 M0 22 H24" stroke="#8B7C5E" stroke-width="0.8" opacity="0.18" fill="none"/><path d="M6 0 V24 M14 0 V24 M22 0 V24" stroke="#8B7C5E" stroke-width="0.6" opacity="0.13" fill="none"/></pattern><pattern id="k-vyqftzy" patternUnits="userSpaceOnUse" width="46" height="46"><g fill="none" stroke="#8E7F60" stroke-width="1.3" opacity="0.75"><path d="M8 22 q6 -12 15 -14 M23 22 q-6 -12 -15 -14 M8 22 q6 12 15 14 M23 22 q-6 12 -15 14"/><path d="M30 6 v34 M36 10 v26" opacity="0.5"/><circle cx="41" cy="23" r="2.4" fill="#8E7F60" stroke="none"/></g></pattern><linearGradient id="bgE" x1="0" y1="0" x2="0" y2="1"><stop offset="0%" stop-color="#F0EFE6"/><stop offset="100%" stop-color="#DCDCCB"/></linearGradient><filter id="soft"><feGaussianBlur stdDeviation="14"/></filter><filter id="soft2"><feGaussianBlur stdDeviation="5"/></filter></defs><rect width="900" height="1200" fill="url(#bgE)"/><ellipse cx="450" cy="1120" rx="250" ry="16" fill="#000" opacity="0.10" filter="url(#soft)"/><g opacity="0.42"><circle cx="96" cy="116" r="12" fill="#E39B45"/><circle cx="96" cy="116" r="5" fill="#C8711F"/><circle cx="168" cy="130" r="12" fill="#E39B45"/><circle cx="168" cy="130" r="5" fill="#C8711F"/><circle cx="240" cy="144" r="12" fill="#E39B45"/><circle cx="240" cy="144" r="5" fill="#C8711F"/><circle cx="312" cy="116" r="12" fill="#E39B45"/><circle cx="312" cy="116" r="5" fill="#C8711F"/><circle cx="384" cy="130" r="12" fill="#E39B45"/><circle cx="384" cy="130" r="5" fill="#C8711F"/><circle cx="456" cy="144" r="12" fill="#E39B45"/><circle cx="456" cy="144" r="5" fill="#C8711F"/><circle cx="528" cy="116" r="12" fill="#E39B45"/><circle cx="528" cy="116" r="5" fill="#C8711F"/><circle cx="600" cy="130" r="12" fill="#E39B45"/><circle cx="600" cy="130" r="5" fill="#C8711F"/><circle cx="672" cy="144" r="12" fill="#E39B45"/><circle cx="672" cy="144" r="5" fill="#C8711F"/><circle cx="744" cy="116" r="12" fill="#E39B45"/><circle cx="744" cy="116" r="5" fill="#C8711F"/><circle cx="816" cy="130" r="12" fill="#E39B45"/><circle cx="816" cy="130" r="5" fill="#C8711F"/><path d="M96 116 Q450 176 804 116" stroke="#A89163" stroke-width="2" fill="none"/></g><g transform="translate(450 640) scale(1.14) translate(-450 -560)"><ellipse cx="450" cy="1060" rx="230" ry="20" fill="#000" opacity="0.12" filter="url(#soft)"/><g transform="translate(450 600)"><rect x="-220" y="-90" width="440" height="180" rx="18" fill="#F1E8D6" stroke="#d7cebc" stroke-width="4"/><rect x="-220" y="-90" width="440" height="180" rx="18" fill="url(#k-vyqftzy)" opacity="0.8"/><path d="M-220 -30 h440" stroke="#B9AE9C" stroke-width="7"/><rect x="-34" y="-52" width="68" height="44" rx="8" fill="#B9AE9C"/></g></g><g fill="none" stroke="#B9AE9C" stroke-width="3" opacity="0.8"><path d="M120 140 h60 M120 140 v60"/><path d="M720 1060 h60 M780 1000 v60"/></g><g fill="none" stroke="#B7945A" opacity="0.55" stroke-width="1.4"><path d="M60 100 V60 H132"/><path d="M768 60 H840 V100"/><path d="M60 1100 V1140 H132"/><path d="M768 1140 H840 V1100"/></g><text x="450" y="1168" text-anchor="middle" font-family="Georgia, serif" font-size="17" letter-spacing="4.6" fill="#B7945A" opacity="0.85">VIRAAS · BAGS</text></svg>