<svg xmlns="http://www.w3.org/2000/svg" viewBox="0 0 900 1200" width="900" height="1200"><title>Butter Yellow Sequin-scattered Satin Co-ord Set — VIRAAS editorial visual</title><defs><pattern id="f-v8oukx9" patternUnits="userSpaceOnUse" width="24" height="24"><path d="M-8 32 L32 -8" stroke="#FFFDF7" stroke-width="9" opacity="0.12"/><path d="M-8 12 L12 -8" stroke="#FFFDF7" stroke-width="5" opacity="0.08"/></pattern><linearGradient id="bgD" x1="0" y1="0" x2="0" y2="1"><stop offset="0%" stop-color="#22302C"/><stop offset="100%" stop-color="#121C19"/></linearGradient><filter id="soft"><feGaussianBlur stdDeviation="14"/></filter><filter id="soft2"><feGaussianBlur stdDeviation="5"/></filter></defs><rect width="900" height="1200" fill="url(#bgD)"/><ellipse cx="450" cy="1120" rx="250" ry="16" fill="#000" opacity="0.10" filter="url(#soft)"/><g opacity="0.5"><g opacity="0.7"><path d="M714 1040 q26 22 52 0 q-26 12 -52 0z" fill="#C08552"/><ellipse cx="740" cy="1034" rx="4" ry="10" fill="#F0C263" opacity="0.9"/></g><g opacity="0.7"><path d="M124 1060 q26 22 52 0 q-26 12 -52 0z" fill="#C08552"/><ellipse cx="150" cy="1054" rx="4" ry="10" fill="#F0C263" opacity="0.9"/></g></g><g><ellipse cx="450" cy="234" rx="34" ry="39" fill="#C9B092"/><path d="M437 260 h26 v46 h-26z" fill="#bda486"/><path d="M284 306 q-30 120 -18 240 l14 -2 q-8 -112 18 -224z" fill="#C9B092" opacity="0.95"/><path d="M616 306 q30 120 18 240 l-14 -2 q8 -112 -18 -224z" fill="#C9B092" opacity="0.95"/><path d="M278 300 Q270 420 334 510 Q328 550 300 600 L600 600 Q572 550 566 510 Q630 420 622 300 Z" fill="#C9B092"/></g>
  <clipPath id="cc-v8oukx9-1"><path d="M348 300 Q450 276 552 300 L562 580 Q450 602 338 580 Z"/></clipPath><path d="M348 300 Q450 276 552 300 L562 580 Q450 602 338 580 Z" fill="#F0DE9A" stroke="#d6c480" stroke-width="1.6" stroke-opacity="0.55"/><g clip-path="url(#cc-v8oukx9-1)"><path d="M348 300 Q450 276 552 300 L562 580 Q450 602 338 580 Z" fill="url(#f-v8oukx9)"/></g>
  <path d="M450 300 V420" fill="none" stroke="#F1E8D6" stroke-width="5" stroke-linecap="round"/>
  <clipPath id="cc-v8oukx9-2"><path d="M344 580 Q450 604 556 580 L566 640 Q450 660 334 640 Z"/></clipPath><path d="M344 580 Q450 604 556 580 L566 640 Q450 660 334 640 Z" fill="#d6c480" stroke="#d6c480" stroke-width="1.6" stroke-opacity="0.55"/><g clip-path="url(#cc-v8oukx9-2)"><path d="M344 580 Q450 604 556 580 L566 640 Q450 660 334 640 Z" fill="url(#f-v8oukx9)"/></g>
  <g stroke="#F1E8D6" stroke-width="2.4" opacity="0.8" fill="none"><path d="M414 610 h72"/><rect x="432" y="598" width="36" height="24" rx="5"/></g>
  <clipPath id="cc-v8oukx9-3"><path d="M342 640 q-10 200 -4 404 l92 4 q4 -204 8 -402z"/></clipPath><path d="M342 640 q-10 200 -4 404 l92 4 q4 -204 8 -402z" fill="#F0DE9A" stroke="#d6c480" stroke-width="1.6" stroke-opacity="0.55"/><g clip-path="url(#cc-v8oukx9-3)"><path d="M342 640 q-10 200 -4 404 l92 4 q4 -204 8 -402z" fill="url(#f-v8oukx9)"/></g>
  <clipPath id="cc-v8oukx9-4"><path d="M558 640 q10 200 4 404 l-92 4 q-4 -204 -8 -402z"/></clipPath><path d="M558 640 q10 200 4 404 l-92 4 q-4 -204 -8 -402z" fill="#F0DE9A" stroke="#d6c480" stroke-width="1.6" stroke-opacity="0.55"/><g clip-path="url(#cc-v8oukx9-4)"><path d="M558 640 q10 200 4 404 l-92 4 q-4 -204 -8 -402z" fill="url(#f-v8oukx9)"/></g>
  
  <g fill="#2A2E2C" opacity="0.95"><path d="M392 1068 q-16 18 6 24 h46 q10 -12 -4 -24z"/><path d="M508 1068 q16 18 -6 24 h-46 q-10 -12 4 -24z"/></g><g><g><circle cx="416" cy="234" r="4" fill="#F1E8D6"/><path d="M416 240 l0 10" stroke="#F1E8D6" stroke-width="2"/><path d="M409 256 Q416 274 423 256 Q416 250 409 256z" fill="#F1E8D6" opacity="0.9"/></g><g><circle cx="484" cy="234" r="4" fill="#F1E8D6"/><path d="M484 240 l0 10" stroke="#F1E8D6" stroke-width="2"/><path d="M477 256 Q484 274 491 256 Q484 250 477 256z" fill="#F1E8D6" opacity="0.9"/></g></g><g fill="none" stroke="#B7945A" opacity="0.55" stroke-width="1.4"><path d="M60 100 V60 H132"/><path d="M768 60 H840 V100"/><path d="M60 1100 V1140 H132"/><path d="M768 1140 H840 V1100"/></g><text x="450" y="1168" text-anchor="middle" font-family="Georgia, serif" font-size="17" letter-spacing="4.6" fill="#B7945A" opacity="0.85">VIRAAS · KURTA SETS</text></svg>