<svg xmlns="http://www.w3.org/2000/svg" viewBox="0 0 900 1200" width="900" height="1200"><title>Ivory Craft-clean Silk Co-ord Set — VIRAAS editorial visual</title><defs><pattern id="f-vdjvjdm" patternUnits="userSpaceOnUse" width="24" height="24"><path d="M-8 32 L32 -8" stroke="#FFFDF7" stroke-width="9" opacity="0.12"/><path d="M-8 12 L12 -8" stroke="#FFFDF7" stroke-width="5" opacity="0.08"/></pattern><linearGradient id="bgE" x1="0" y1="0" x2="0" y2="1"><stop offset="0%" stop-color="#F0EFE6"/><stop offset="100%" stop-color="#DCDCCB"/></linearGradient><filter id="soft"><feGaussianBlur stdDeviation="14"/></filter><filter id="soft2"><feGaussianBlur stdDeviation="5"/></filter></defs><rect width="900" height="1200" fill="url(#bgE)"/><ellipse cx="450" cy="1120" rx="250" ry="16" fill="#000" opacity="0.11" filter="url(#soft)"/><g opacity="0.34" fill="none" stroke="#B7945A" stroke-width="2"><path d="M210 130 q40 62 0 122 q-40 -60 0 -122"/><path d="M450 130 q40 62 0 122 q-40 -60 0 -122"/><path d="M690 130 q40 62 0 122 q-40 -60 0 -122"/></g><circle cx="140" cy="112" r="5" fill="#D95E3F" opacity="0.5"/><circle cx="310" cy="112" r="5" fill="#D95E3F" opacity="0.5"/><circle cx="480" cy="112" r="5" fill="#D95E3F" opacity="0.5"/><circle cx="650" cy="112" r="5" fill="#D95E3F" opacity="0.5"/><circle cx="820" cy="112" r="5" fill="#D95E3F" opacity="0.5"/><g><ellipse cx="450" cy="234" rx="34" ry="39" fill="#C9B092"/><path d="M437 260 h26 v46 h-26z" fill="#bda486"/><path d="M284 306 q-30 120 -18 240 l14 -2 q-8 -112 18 -224z" fill="#C9B092" opacity="0.95"/><path d="M616 306 q30 120 18 240 l-14 -2 q8 -112 -18 -224z" fill="#C9B092" opacity="0.95"/><path d="M278 300 Q270 420 334 510 Q328 550 300 600 L600 600 Q572 550 566 510 Q630 420 622 300 Z" fill="#C9B092"/></g>
  <clipPath id="cc-vdjvjdm-1"><path d="M348 300 Q450 276 552 300 L562 580 Q450 602 338 580 Z"/></clipPath><path d="M348 300 Q450 276 552 300 L562 580 Q450 602 338 580 Z" fill="#F1E8D6" stroke="#d7cebc" stroke-width="1.6" stroke-opacity="0.55"/><g clip-path="url(#cc-vdjvjdm-1)"><path d="M348 300 Q450 276 552 300 L562 580 Q450 602 338 580 Z" fill="url(#f-vdjvjdm)"/></g>
  <path d="M450 300 V420" fill="none" stroke="#E39B45" stroke-width="5" stroke-linecap="round"/>
  <clipPath id="cc-vdjvjdm-2"><path d="M344 580 Q450 604 556 580 L566 640 Q450 660 334 640 Z"/></clipPath><path d="M344 580 Q450 604 556 580 L566 640 Q450 660 334 640 Z" fill="#d7cebc" stroke="#d7cebc" stroke-width="1.6" stroke-opacity="0.55"/><g clip-path="url(#cc-vdjvjdm-2)"><path d="M344 580 Q450 604 556 580 L566 640 Q450 660 334 640 Z" fill="url(#f-vdjvjdm)"/></g>
  <g stroke="#E39B45" stroke-width="2.4" opacity="0.8" fill="none"><path d="M414 610 h72"/><rect x="432" y="598" width="36" height="24" rx="5"/></g>
  <clipPath id="cc-vdjvjdm-3"><path d="M342 640 q-10 200 -4 404 l92 4 q4 -204 8 -402z"/></clipPath><path d="M342 640 q-10 200 -4 404 l92 4 q4 -204 8 -402z" fill="#F1E8D6" stroke="#d7cebc" stroke-width="1.6" stroke-opacity="0.55"/><g clip-path="url(#cc-vdjvjdm-3)"><path d="M342 640 q-10 200 -4 404 l92 4 q4 -204 8 -402z" fill="url(#f-vdjvjdm)"/></g>
  <clipPath id="cc-vdjvjdm-4"><path d="M558 640 q10 200 4 404 l-92 4 q-4 -204 -8 -402z"/></clipPath><path d="M558 640 q10 200 4 404 l-92 4 q-4 -204 -8 -402z" fill="#F1E8D6" stroke="#d7cebc" stroke-width="1.6" stroke-opacity="0.55"/><g clip-path="url(#cc-vdjvjdm-4)"><path d="M558 640 q10 200 4 404 l-92 4 q-4 -204 -8 -402z" fill="url(#f-vdjvjdm)"/></g>
  
  <g fill="#2A2E2C" opacity="0.95"><path d="M392 1068 q-16 18 6 24 h46 q10 -12 -4 -24z"/><path d="M508 1068 q16 18 -6 24 h-46 q-10 -12 4 -24z"/></g><g><g><circle cx="416" cy="234" r="4" fill="#E39B45"/><path d="M416 240 l0 10" stroke="#E39B45" stroke-width="2"/><path d="M409 256 Q416 274 423 256 Q416 250 409 256z" fill="#E39B45" opacity="0.9"/></g><g><circle cx="484" cy="234" r="4" fill="#E39B45"/><path d="M484 240 l0 10" stroke="#E39B45" stroke-width="2"/><path d="M477 256 Q484 274 491 256 Q484 250 477 256z" fill="#E39B45" opacity="0.9"/></g></g><g fill="none" stroke="#B7945A" opacity="0.55" stroke-width="1.4"><path d="M60 100 V60 H132"/><path d="M768 60 H840 V100"/><path d="M60 1100 V1140 H132"/><path d="M768 1140 H840 V1100"/></g><text x="450" y="1168" text-anchor="middle" font-family="Georgia, serif" font-size="17" letter-spacing="4.6" fill="#B7945A" opacity="0.85">VIRAAS · KURTA SETS</text></svg>