<svg xmlns="http://www.w3.org/2000/svg" viewBox="0 0 900 1200" width="900" height="1200"><title>Rose Gold Marwari Passa — VIRAAS editorial visual</title><defs><radialGradient id="bgA" cx="50%" cy="34%" r="78%"><stop offset="0%" stop-color="#FCF8EF"/><stop offset="100%" stop-color="#EBE2D0"/></radialGradient><filter id="soft"><feGaussianBlur stdDeviation="14"/></filter><filter id="soft2"><feGaussianBlur stdDeviation="5"/></filter></defs><rect width="900" height="1200" fill="url(#bgA)"/><ellipse cx="450" cy="1120" rx="250" ry="16" fill="#000" opacity="0.10" filter="url(#soft)"/><g opacity="0.42"><circle cx="96" cy="116" r="12" fill="#E39B45"/><circle cx="96" cy="116" r="5" fill="#C8711F"/><circle cx="168" cy="130" r="12" fill="#E39B45"/><circle cx="168" cy="130" r="5" fill="#C8711F"/><circle cx="240" cy="144" r="12" fill="#E39B45"/><circle cx="240" cy="144" r="5" fill="#C8711F"/><circle cx="312" cy="116" r="12" fill="#E39B45"/><circle cx="312" cy="116" r="5" fill="#C8711F"/><circle cx="384" cy="130" r="12" fill="#E39B45"/><circle cx="384" cy="130" r="5" fill="#C8711F"/><circle cx="456" cy="144" r="12" fill="#E39B45"/><circle cx="456" cy="144" r="5" fill="#C8711F"/><circle cx="528" cy="116" r="12" fill="#E39B45"/><circle cx="528" cy="116" r="5" fill="#C8711F"/><circle cx="600" cy="130" r="12" fill="#E39B45"/><circle cx="600" cy="130" r="5" fill="#C8711F"/><circle cx="672" cy="144" r="12" fill="#E39B45"/><circle cx="672" cy="144" r="5" fill="#C8711F"/><circle cx="744" cy="116" r="12" fill="#E39B45"/><circle cx="744" cy="116" r="5" fill="#C8711F"/><circle cx="816" cy="130" r="12" fill="#E39B45"/><circle cx="816" cy="130" r="5" fill="#C8711F"/><path d="M96 116 Q450 176 804 116" stroke="#A89163" stroke-width="2" fill="none"/></g><g transform="translate(450 640) scale(1.14) translate(-450 -560)"><ellipse cx="450" cy="1060" rx="230" ry="20" fill="#000" opacity="0.12" filter="url(#soft)"/><g transform="translate(450 560)"><path d="M-220 60 Q0 -160 220 60 Q0 -60 -220 60z" fill="#D8A18B" stroke="#E8D8B0" stroke-width="6"/><circle cx="-190" cy="30" r="11" fill="#E8D8B0" opacity="0.85"/><circle cx="-152" cy="2.19" r="11" fill="#E8D8B0" opacity="0.85"/><circle cx="-114" cy="-22.9" r="11" fill="#E8D8B0" opacity="0.85"/><circle cx="-76" cy="-42.81" r="11" fill="#E8D8B0" opacity="0.85"/><circle cx="-38" cy="-55.6" r="11" fill="#E8D8B0" opacity="0.85"/><circle cx="0" cy="-60" r="11" fill="#E8D8B0" opacity="0.85"/><circle cx="38" cy="-55.6" r="11" fill="#E8D8B0" opacity="0.85"/><circle cx="76" cy="-42.81" r="11" fill="#E8D8B0" opacity="0.85"/><circle cx="114" cy="-22.9" r="11" fill="#E8D8B0" opacity="0.85"/><circle cx="152" cy="2.19" r="11" fill="#E8D8B0" opacity="0.85"/><circle cx="190" cy="30" r="11" fill="#E8D8B0" opacity="0.85"/></g></g><g fill="none" stroke="#E8D8B0" stroke-width="3" opacity="0.8"><path d="M120 140 h60 M120 140 v60"/><path d="M720 1060 h60 M780 1000 v60"/></g><g fill="none" stroke="#B7945A" opacity="0.55" stroke-width="1.4"><path d="M60 100 V60 H132"/><path d="M768 60 H840 V100"/><path d="M60 1100 V1140 H132"/><path d="M768 1140 H840 V1100"/></g><text x="450" y="1168" text-anchor="middle" font-family="Georgia, serif" font-size="17" letter-spacing="4.6" fill="#B7945A" opacity="0.85">VIRAAS · JEWELLERY</text></svg>