<svg xmlns="http://www.w3.org/2000/svg" viewBox="0 0 900 1200" width="900" height="1200"><title>College Fest · Candid Selfie 05 — VIRAAS Couple Edit</title><defs><pattern id="f-cvhh4zr0h" patternUnits="userSpaceOnUse" width="24" height="24"><rect width="24" height="24" fill="#ffa07e" opacity="0.05"/><path d="M0 8 H24 M0 20 H24" stroke="#ffa07e" stroke-width="0.8" opacity="0.12" fill="none"/></pattern><pattern id="f-cvhh4zr0m" patternUnits="userSpaceOnUse" width="24" height="24"><path d="M0 6 H24 M0 14 H24 M0 22 H24" stroke="#ffa07e" stroke-width="0.8" opacity="0.18" fill="none"/><path d="M6 0 V24 M14 0 V24 M22 0 V24" stroke="#ffa07e" stroke-width="0.6" opacity="0.13" fill="none"/></pattern><pattern id="k-cvhh4zr0m" patternUnits="userSpaceOnUse" width="46" height="46"><g fill="none" stroke="#ffa07e" stroke-width="1.3" opacity="0.75"><path d="M8 22 q6 -12 15 -14 M23 22 q-6 -12 -15 -14 M8 22 q6 12 15 14 M23 22 q-6 12 -15 14"/><path d="M30 6 v34 M36 10 v26" opacity="0.5"/><circle cx="41" cy="23" r="2.4" fill="#ffa07e" stroke="none"/></g></pattern><filter id="soft"><feGaussianBlur stdDeviation="14"/></filter></defs><rect width="900" height="1200" fill="#F4ECDC"/><g opacity="0.5"><circle cx="70" cy="120" r="11" fill="#E39B45"/><circle cx="70" cy="120" r="4" fill="#C8711F"/><circle cx="166" cy="132" r="11" fill="#E39B45"/><circle cx="166" cy="132" r="4" fill="#C8711F"/><circle cx="262" cy="144" r="11" fill="#E39B45"/><circle cx="262" cy="144" r="4" fill="#C8711F"/><circle cx="358" cy="120" r="11" fill="#E39B45"/><circle cx="358" cy="120" r="4" fill="#C8711F"/><circle cx="454" cy="132" r="11" fill="#E39B45"/><circle cx="454" cy="132" r="4" fill="#C8711F"/><circle cx="550" cy="144" r="11" fill="#E39B45"/><circle cx="550" cy="144" r="4" fill="#C8711F"/><circle cx="646" cy="120" r="11" fill="#E39B45"/><circle cx="646" cy="120" r="4" fill="#C8711F"/><circle cx="742" cy="132" r="11" fill="#E39B45"/><circle cx="742" cy="132" r="4" fill="#C8711F"/><circle cx="838" cy="144" r="11" fill="#E39B45"/><circle cx="838" cy="144" r="4" fill="#C8711F"/><path d="M70 120 Q450 176 830 120" stroke="#A89163" stroke-width="2" fill="none"/></g><g transform="translate(-80 40) scale(0.66)"><g><ellipse cx="450" cy="234" rx="34" ry="39" fill="#C9B092"/><path d="M437 260 h26 v46 h-26z" fill="#bda486"/><path d="M284 306 q-30 120 -18 240 l14 -2 q-8 -112 18 -224z" fill="#C9B092" opacity="0.95"/><path d="M616 306 q30 120 18 240 l-14 -2 q8 -112 -18 -224z" fill="#C9B092" opacity="0.95"/><path d="M278 300 Q270 420 350 510 Q344 550 300 600 L600 600 Q556 550 550 510 Q630 420 622 300 Z" fill="#C9B092"/></g>
  <clipPath id="cc-cvhh4zr0h-1"><path d="M360 300 Q450 280 540 300 L548 452 Q450 476 352 452 Z"/></clipPath><path d="M360 300 Q450 280 540 300 L548 452 Q450 476 352 452 Z" fill="#d65e3c" stroke="#d65e3c" stroke-width="1.6" stroke-opacity="0.55"/><g clip-path="url(#cc-cvhh4zr0h-1)"><path d="M360 300 Q450 280 540 300 L548 452 Q450 476 352 452 Z" fill="url(#f-cvhh4zr0h)"/></g>
  
  <clipPath id="cc-cvhh4zr0h-2"><path d="M352 452 Q450 476 548 452 L716 1044 Q450 1096 184 1044 Z"/></clipPath><path d="M352 452 Q450 476 548 452 L716 1044 Q450 1096 184 1044 Z" fill="#F07856" stroke="#d65e3c" stroke-width="1.6" stroke-opacity="0.55"/><g clip-path="url(#cc-cvhh4zr0h-2)"><path d="M352 452 Q450 476 548 452 L716 1044 Q450 1096 184 1044 Z" fill="url(#f-cvhh4zr0h)"/></g>
  <g><path d="M362 462 Q262 760 196 1038" stroke="#d65e3c" stroke-width="1.6" fill="none" opacity="0.42"/><path d="M377.6 462 Q298 760 242 1038" stroke="#d65e3c" stroke-width="1.6" fill="none" opacity="0.42"/><path d="M393.2 462 Q334 760 288 1038" stroke="#d65e3c" stroke-width="1.6" fill="none" opacity="0.42"/><path d="M408.8 462 Q370 760 334 1038" stroke="#d65e3c" stroke-width="1.6" fill="none" opacity="0.42"/><path d="M424.4 462 Q406 760 380 1038" stroke="#d65e3c" stroke-width="1.6" fill="none" opacity="0.42"/><path d="M440 462 Q442 760 426 1038" stroke="#d65e3c" stroke-width="1.6" fill="none" opacity="0.42"/><path d="M455.6 462 Q478 760 472 1038" stroke="#d65e3c" stroke-width="1.6" fill="none" opacity="0.42"/><path d="M471.2 462 Q514 760 518 1038" stroke="#d65e3c" stroke-width="1.6" fill="none" opacity="0.42"/><path d="M486.8 462 Q550 760 564 1038" stroke="#d65e3c" stroke-width="1.6" fill="none" opacity="0.42"/><path d="M502.4 462 Q586 760 610 1038" stroke="#d65e3c" stroke-width="1.6" fill="none" opacity="0.42"/><path d="M518 462 Q622 760 656 1038" stroke="#d65e3c" stroke-width="1.6" fill="none" opacity="0.42"/><path d="M533.6 462 Q658 760 702 1038" stroke="#d65e3c" stroke-width="1.6" fill="none" opacity="0.42"/></g>
  
  <path d="M196 1046 Q450 1094 704 1046" fill="none" stroke="#E5468A" stroke-width="12" stroke-linecap="round"/>
  <clipPath id="cc-cvhh4zr0h-3"><path d="M548 452 Q640 520 664 700 Q680 860 640 980 L584 940 Q616 780 566 560 Z"/></clipPath><path d="M548 452 Q640 520 664 700 Q680 860 640 980 L584 940 Q616 780 566 560 Z" fill="#ff9270" stroke="#d65e3c" stroke-width="1.6" stroke-opacity="0.55"/><g clip-path="url(#cc-cvhh4zr0h-3)"><path d="M548 452 Q640 520 664 700 Q680 860 640 980 L584 940 Q616 780 566 560 Z" fill="url(#f-cvhh4zr0h)"/></g>
  <path d="M548 452 Q640 520 664 700" fill="none" stroke="#E5468A" stroke-width="9" stroke-linecap="round"/>
  <g fill="#2A2E2C" opacity="0.95"><path d="M392 1064 q-16 18 6 24 h46 q10 -12 -4 -24z"/><path d="M508 1064 q16 18 -6 24 h-46 q-10 -12 4 -24z"/></g><g><g><circle cx="416" cy="234" r="4" fill="#E5468A"/><path d="M416 240 l0 10" stroke="#E5468A" stroke-width="2"/><path d="M409 256 Q416 274 423 256 Q416 250 409 256z" fill="#E5468A" opacity="0.9"/></g><g><circle cx="484" cy="234" r="4" fill="#E5468A"/><path d="M484 240 l0 10" stroke="#E5468A" stroke-width="2"/><path d="M477 256 Q484 274 491 256 Q484 250 477 256z" fill="#E5468A" opacity="0.9"/></g></g><g fill="none" stroke="#E5468A" stroke-width="3"><path d="M406 282 Q450 324 494 282"/></g><g fill="#E5468A"><circle cx="450" cy="326" r="6"/></g><g><path d="M420 204 Q450 188 480 204" stroke="#E5468A" stroke-width="3" fill="none"/><circle cx="450" cy="220" r="6" fill="#E5468A"/></g></g><g transform="translate(110 40) scale(0.64)"><g><ellipse cx="450" cy="230" rx="34" ry="39" fill="#B79A7C"/><path d="M437 256 h26 v46 h-26z" fill="#ab8e70"/><path d="M270 302 q-30 120 -18 240 l14 -2 q-8 -112 18 -224z" fill="#B79A7C" opacity="0.95"/><path d="M630 302 q30 120 18 240 l-14 -2 q8 -112 -18 -224z" fill="#B79A7C" opacity="0.95"/><path d="M264 296 Q256 416 312 506 Q306 546 292 596 L608 596 Q594 546 588 506 Q644 416 636 296 Z" fill="#B79A7C"/></g>
  <clipPath id="cc-cvhh4zr0m-1"><path d="M322 296 Q450 270 578 296 L588 690 Q450 712 312 690 Z"/></clipPath><path d="M322 296 Q450 270 578 296 L588 690 Q450 712 312 690 Z" fill="#F07856" stroke="#d65e3c" stroke-width="1.6" stroke-opacity="0.55"/><g clip-path="url(#cc-cvhh4zr0m-1)"><path d="M322 296 Q450 270 578 296 L588 690 Q450 712 312 690 Z" fill="url(#f-cvhh4zr0m)"/><path d="M322 296 Q450 270 578 296 L588 690 Q450 712 312 690 Z" fill="url(#k-cvhh4zr0m)" opacity="0.72"/></g>
  <path d="M450 296 V460" fill="none" stroke="#E5468A" stroke-width="5" stroke-linecap="round"/><path d="M336 668 Q450 690 564 668" fill="none" stroke="url(#k-cvhh4zr0m)" stroke-width="18" stroke-linecap="round" opacity="0.95"/>
  <g><path d="M352 700 q-8 180 -2 336 l84 4 q4 -180 8 -330z" fill="#B79A7C" opacity="0.9"/><path d="M548 700 q8 180 2 336 l-84 4 q-4 -180 -8 -330z" fill="#B79A7C" opacity="0.9"/></g>
  <clipPath id="cc-cvhh4zr0m-2"><path d="M356 710 q-6 170 -2 322 l72 2 q2 -170 6 -316z"/></clipPath><path d="M356 710 q-6 170 -2 322 l72 2 q2 -170 6 -316z" fill="#d65e3c" stroke="#d65e3c" stroke-width="1.6" stroke-opacity="0.55"/><g clip-path="url(#cc-cvhh4zr0m-2)"><path d="M356 710 q-6 170 -2 322 l72 2 q2 -170 6 -316z" fill="url(#f-cvhh4zr0m)"/><path d="M356 710 q-6 170 -2 322 l72 2 q2 -170 6 -316z" fill="url(#k-cvhh4zr0m)" opacity="0.72"/></g>
  <clipPath id="cc-cvhh4zr0m-3"><path d="M544 710 q6 170 2 322 l-72 2 q-2 -170 -6 -316z"/></clipPath><path d="M544 710 q6 170 2 322 l-72 2 q-2 -170 -6 -316z" fill="#d65e3c" stroke="#d65e3c" stroke-width="1.6" stroke-opacity="0.55"/><g clip-path="url(#cc-cvhh4zr0m-3)"><path d="M544 710 q6 170 2 322 l-72 2 q-2 -170 -6 -316z" fill="url(#f-cvhh4zr0m)"/><path d="M544 710 q6 170 2 322 l-72 2 q-2 -170 -6 -316z" fill="url(#k-cvhh4zr0m)" opacity="0.72"/></g>
  <g fill="#171918" opacity="0.95"><path d="M392 1058 q-16 18 6 24 h46 q10 -12 -4 -24z"/><path d="M508 1058 q16 18 -6 24 h-46 q-10 -12 4 -24z"/></g></g><ellipse cx="450" cy="1120" rx="330" ry="18" fill="#000" opacity="0.12" filter="url(#soft)"/><path d="M450 170 V1090" stroke="#B7945A" stroke-width="1.6" opacity="0.35" stroke-dasharray="1 7"/><g fill="none" stroke="#B7945A" opacity="0.55" stroke-width="1.4"><path d="M60 100 V60 H132"/><path d="M768 60 H840 V100"/><path d="M60 1100 V1140 H132"/><path d="M768 1140 H840 V1100"/></g><text x="450" y="1168" text-anchor="middle" font-family="Georgia, serif" font-size="17" letter-spacing="4.6" fill="#B7945A" opacity="0.9">VIRAAS · COUPLE EDIT · COLLEGE FEST · CANDID SELFIE 05</text></svg>