<svg xmlns="http://www.w3.org/2000/svg" viewBox="0 0 900 1200" width="900" height="1200"><title>Lake-Palace Night Reception — VIRAAS Couple Edit</title><defs><pattern id="f-cv8124nnh" patternUnits="userSpaceOnUse" width="24" height="24"><path d="M-8 32 L32 -8" stroke="#3e98a2" stroke-width="9" opacity="0.12"/><path d="M-8 12 L12 -8" stroke="#3e98a2" stroke-width="5" opacity="0.08"/></pattern><pattern id="k-cv8124nnh" patternUnits="userSpaceOnUse" width="24" height="24"><g stroke="#3e98a2" stroke-width="1.2" opacity="0.7" fill="none"><path d="M2 6 l5 5 -5 5 M12 2 l6 6 -6 6"/><path d="M4 18 h16" opacity="0.5"/></g></pattern><pattern id="f-cv8124nnm" patternUnits="userSpaceOnUse" width="24" height="24"><path d="M0 12 q6 -8 12 0 t12 0" stroke="#3c3c3c" stroke-width="1.6" fill="none" opacity="0.2"/></pattern><pattern id="k-cv8124nnm" patternUnits="userSpaceOnUse" width="30" height="30"><g fill="#3c3c3c" opacity="0.42"><path d="M15 5 q7 8 0 15 q-7 -7 0 -15z"/><path d="M4 22 q6 -5 10 0 q-5 6 -10 0z"/></g></pattern><filter id="soft"><feGaussianBlur stdDeviation="14"/></filter></defs><rect width="900" height="1200" fill="#F4ECDC"/><g opacity="0.5"><circle cx="70" cy="120" r="11" fill="#E39B45"/><circle cx="70" cy="120" r="4" fill="#C8711F"/><circle cx="166" cy="132" r="11" fill="#E39B45"/><circle cx="166" cy="132" r="4" fill="#C8711F"/><circle cx="262" cy="144" r="11" fill="#E39B45"/><circle cx="262" cy="144" r="4" fill="#C8711F"/><circle cx="358" cy="120" r="11" fill="#E39B45"/><circle cx="358" cy="120" r="4" fill="#C8711F"/><circle cx="454" cy="132" r="11" fill="#E39B45"/><circle cx="454" cy="132" r="4" fill="#C8711F"/><circle cx="550" cy="144" r="11" fill="#E39B45"/><circle cx="550" cy="144" r="4" fill="#C8711F"/><circle cx="646" cy="120" r="11" fill="#E39B45"/><circle cx="646" cy="120" r="4" fill="#C8711F"/><circle cx="742" cy="132" r="11" fill="#E39B45"/><circle cx="742" cy="132" r="4" fill="#C8711F"/><circle cx="838" cy="144" r="11" fill="#E39B45"/><circle cx="838" cy="144" r="4" fill="#C8711F"/><path d="M70 120 Q450 176 830 120" stroke="#A89163" stroke-width="2" fill="none"/></g><g transform="translate(-80 40) scale(0.66)"><g><ellipse cx="450" cy="234" rx="34" ry="39" fill="#DECDB4"/><path d="M437 260 h26 v46 h-26z" fill="#d2c1a8"/><path d="M284 306 q-30 120 -18 240 l14 -2 q-8 -112 18 -224z" fill="#DECDB4" opacity="0.95"/><path d="M616 306 q30 120 18 240 l-14 -2 q8 -112 -18 -224z" fill="#DECDB4" opacity="0.95"/><path d="M278 300 Q270 420 350 510 Q344 550 300 600 L600 600 Q556 550 550 510 Q630 420 622 300 Z" fill="#DECDB4"/></g>
  <clipPath id="cc-cv8124nnh-1"><path d="M360 300 Q450 280 540 300 L548 452 Q450 476 352 452 Z"/></clipPath><path d="M360 300 Q450 280 540 300 L548 452 Q450 476 352 452 Z" fill="#005660" stroke="#005660" stroke-width="1.6" stroke-opacity="0.55"/><g clip-path="url(#cc-cv8124nnh-1)"><path d="M360 300 Q450 280 540 300 L548 452 Q450 476 352 452 Z" fill="url(#f-cv8124nnh)"/><path d="M360 300 Q450 280 540 300 L548 452 Q450 476 352 452 Z" fill="url(#k-cv8124nnh)" opacity="0.72"/></g>
  <path d="M364 316 Q450 298 536 318" fill="none" stroke="url(#k-cv8124nnh)" stroke-width="20" stroke-linecap="round" opacity="0.95"/>
  <clipPath id="cc-cv8124nnh-2"><path d="M352 452 Q450 476 548 452 L716 1044 Q450 1096 184 1044 Z"/></clipPath><path d="M352 452 Q450 476 548 452 L716 1044 Q450 1096 184 1044 Z" fill="#16707A" stroke="#005660" stroke-width="1.6" stroke-opacity="0.55"/><g clip-path="url(#cc-cv8124nnh-2)"><path d="M352 452 Q450 476 548 452 L716 1044 Q450 1096 184 1044 Z" fill="url(#f-cv8124nnh)"/><path d="M352 452 Q450 476 548 452 L716 1044 Q450 1096 184 1044 Z" fill="url(#k-cv8124nnh)" opacity="0.72"/></g>
  <g><path d="M362 462 Q262 760 196 1038" stroke="#005660" stroke-width="1.6" fill="none" opacity="0.42"/><path d="M377.6 462 Q298 760 242 1038" stroke="#005660" stroke-width="1.6" fill="none" opacity="0.42"/><path d="M393.2 462 Q334 760 288 1038" stroke="#005660" stroke-width="1.6" fill="none" opacity="0.42"/><path d="M408.8 462 Q370 760 334 1038" stroke="#005660" stroke-width="1.6" fill="none" opacity="0.42"/><path d="M424.4 462 Q406 760 380 1038" stroke="#005660" stroke-width="1.6" fill="none" opacity="0.42"/><path d="M440 462 Q442 760 426 1038" stroke="#005660" stroke-width="1.6" fill="none" opacity="0.42"/><path d="M455.6 462 Q478 760 472 1038" stroke="#005660" stroke-width="1.6" fill="none" opacity="0.42"/><path d="M471.2 462 Q514 760 518 1038" stroke="#005660" stroke-width="1.6" fill="none" opacity="0.42"/><path d="M486.8 462 Q550 760 564 1038" stroke="#005660" stroke-width="1.6" fill="none" opacity="0.42"/><path d="M502.4 462 Q586 760 610 1038" stroke="#005660" stroke-width="1.6" fill="none" opacity="0.42"/><path d="M518 462 Q622 760 656 1038" stroke="#005660" stroke-width="1.6" fill="none" opacity="0.42"/><path d="M533.6 462 Q658 760 702 1038" stroke="#005660" stroke-width="1.6" fill="none" opacity="0.42"/></g>
  <path d="M218 960 Q450 1014 682 960" fill="none" stroke="url(#k-cv8124nnh)" stroke-width="34" stroke-linecap="round" opacity="0.95"/>
  <path d="M196 1046 Q450 1094 704 1046" fill="none" stroke="#1D5A40" stroke-width="12" stroke-linecap="round"/>
  <clipPath id="cc-cv8124nnh-3"><path d="M548 452 Q640 520 664 700 Q680 860 640 980 L584 940 Q616 780 566 560 Z"/></clipPath><path d="M548 452 Q640 520 664 700 Q680 860 640 980 L584 940 Q616 780 566 560 Z" fill="#308a94" stroke="#005660" stroke-width="1.6" stroke-opacity="0.55"/><g clip-path="url(#cc-cv8124nnh-3)"><path d="M548 452 Q640 520 664 700 Q680 860 640 980 L584 940 Q616 780 566 560 Z" fill="url(#f-cv8124nnh)"/><path d="M548 452 Q640 520 664 700 Q680 860 640 980 L584 940 Q616 780 566 560 Z" fill="url(#k-cv8124nnh)" opacity="0.72"/></g>
  <path d="M548 452 Q640 520 664 700" fill="none" stroke="#1D5A40" stroke-width="9" stroke-linecap="round"/>
  <g fill="#2A2E2C" opacity="0.95"><path d="M392 1064 q-16 18 6 24 h46 q10 -12 -4 -24z"/><path d="M508 1064 q16 18 -6 24 h-46 q-10 -12 4 -24z"/></g><g><g><circle cx="416" cy="234" r="4" fill="#1D5A40"/><path d="M416 240 l0 10" stroke="#1D5A40" stroke-width="2"/><path d="M409 256 Q416 274 423 256 Q416 250 409 256z" fill="#1D5A40" opacity="0.9"/></g><g><circle cx="484" cy="234" r="4" fill="#1D5A40"/><path d="M484 240 l0 10" stroke="#1D5A40" stroke-width="2"/><path d="M477 256 Q484 274 491 256 Q484 250 477 256z" fill="#1D5A40" opacity="0.9"/></g></g><g fill="none" stroke="#1D5A40" stroke-width="3"><path d="M406 282 Q450 324 494 282"/></g><g fill="#1D5A40"><circle cx="450" cy="326" r="6"/></g><g><path d="M420 204 Q450 188 480 204" stroke="#1D5A40" stroke-width="3" fill="none"/><circle cx="450" cy="220" r="6" fill="#1D5A40"/></g></g><g transform="translate(110 40) scale(0.64)"><g><ellipse cx="450" cy="234" rx="34" ry="39" fill="#DECDB4"/><path d="M437 260 h26 v46 h-26z" fill="#d2c1a8"/><path d="M284 306 q-30 120 -18 240 l14 -2 q-8 -112 18 -224z" fill="#DECDB4" opacity="0.95"/><path d="M616 306 q30 120 18 240 l-14 -2 q8 -112 -18 -224z" fill="#DECDB4" opacity="0.95"/><path d="M278 300 Q270 420 334 510 Q328 550 300 600 L600 600 Q572 550 566 510 Q630 420 622 300 Z" fill="#DECDB4"/></g>
  <clipPath id="cc-cv8124nnm-1"><path d="M332 300 Q450 268 568 300 L588 760 Q450 792 312 760 Z"/></clipPath><path d="M332 300 Q450 268 568 300 L588 760 Q450 792 312 760 Z" fill="#141414" stroke="#000000" stroke-width="1.6" stroke-opacity="0.55"/><g clip-path="url(#cc-cv8124nnm-1)"><path d="M332 300 Q450 268 568 300 L588 760 Q450 792 312 760 Z" fill="url(#f-cv8124nnm)"/><path d="M332 300 Q450 268 568 300 L588 760 Q450 792 312 760 Z" fill="url(#k-cv8124nnm)" opacity="0.72"/></g>
  <path d="M450 300 V470" fill="none" stroke="#4A3226" stroke-width="6" stroke-linecap="round"/>
  <circle cx="450" cy="330" r="3.4" fill="#4A3226"/><circle cx="450" cy="370" r="3.4" fill="#4A3226"/><circle cx="450" cy="410" r="3.4" fill="#4A3226"/><circle cx="450" cy="450" r="3.4" fill="#4A3226"/>
  <clipPath id="cc-cv8124nnm-2"><path d="M330 302 q-30 6 -34 40 l16 240 l34 -6 z"/></clipPath><path d="M330 302 q-30 6 -34 40 l16 240 l34 -6 z" fill="#2e2e2e" stroke="#000000" stroke-width="1.6" stroke-opacity="0.55"/><g clip-path="url(#cc-cv8124nnm-2)"><path d="M330 302 q-30 6 -34 40 l16 240 l34 -6 z" fill="url(#f-cv8124nnm)"/><path d="M330 302 q-30 6 -34 40 l16 240 l34 -6 z" fill="url(#k-cv8124nnm)" opacity="0.72"/></g>
  <clipPath id="cc-cv8124nnm-3"><path d="M570 302 q30 6 34 40 l-16 240 l-34 -6 z"/></clipPath><path d="M570 302 q30 6 34 40 l-16 240 l-34 -6 z" fill="#2e2e2e" stroke="#000000" stroke-width="1.6" stroke-opacity="0.55"/><g clip-path="url(#cc-cv8124nnm-3)"><path d="M570 302 q30 6 34 40 l-16 240 l-34 -6 z" fill="url(#f-cv8124nnm)"/><path d="M570 302 q30 6 34 40 l-16 240 l-34 -6 z" fill="url(#k-cv8124nnm)" opacity="0.72"/></g>
  <clipPath id="cc-cv8124nnm-4"><path d="M338 760 Q450 788 562 760 L584 1054 Q450 1078 316 1054 Z"/></clipPath><path d="M338 760 Q450 788 562 760 L584 1054 Q450 1078 316 1054 Z" fill="#141414" stroke="#000000" stroke-width="1.6" stroke-opacity="0.55"/><g clip-path="url(#cc-cv8124nnm-4)"><path d="M338 760 Q450 788 562 760 L584 1054 Q450 1078 316 1054 Z" fill="url(#f-cv8124nnm)"/><path d="M338 760 Q450 788 562 760 L584 1054 Q450 1078 316 1054 Z" fill="url(#k-cv8124nnm)" opacity="0.72"/></g>
  <clipPath id="cc-cv8124nnm-5"><path d="M568 300 Q648 360 690 520 Q720 660 690 800 L636 760 Q654 600 606 460 Q576 372 540 340Z"/></clipPath><path d="M568 300 Q648 360 690 520 Q720 660 690 800 L636 760 Q654 600 606 460 Q576 372 540 340Z" fill="#2e2e2e" stroke="#000000" stroke-width="1.6" stroke-opacity="0.55"/><g clip-path="url(#cc-cv8124nnm-5)"><path d="M568 300 Q648 360 690 520 Q720 660 690 800 L636 760 Q654 600 606 460 Q576 372 540 340Z" fill="url(#f-cv8124nnm)"/><path d="M568 300 Q648 360 690 520 Q720 660 690 800 L636 760 Q654 600 606 460 Q576 372 540 340Z" fill="url(#k-cv8124nnm)" opacity="0.72"/></g>
  <path d="M568 300 Q648 360 690 520 Q720 660 690 800" fill="none" stroke="#4A3226" stroke-width="8" stroke-linecap="round"/>
  <path d="M360 720 Q450 700 540 722" fill="none" stroke="url(#k-cv8124nnm)" stroke-width="20" stroke-linecap="round" opacity="0.95"/>
  <g><path d="M424 1040 q-6 120 -10 4 l24 0 q4 -5 6 -10z" fill="#DECDB4"/><path d="M476 1040 q6 120 10 4 l-24 0 q-4 -5 -6 -10z" fill="#DECDB4"/></g><g fill="#2A2E2C" opacity="0.95"><path d="M392 1072 q-16 18 6 24 h46 q10 -12 -4 -24z"/><path d="M508 1072 q16 18 -6 24 h-46 q-10 -12 4 -24z"/></g><g><g><circle cx="416" cy="234" r="4" fill="#4A3226"/><path d="M416 240 l0 10" stroke="#4A3226" stroke-width="2"/><path d="M409 256 Q416 274 423 256 Q416 250 409 256z" fill="#4A3226" opacity="0.9"/></g><g><circle cx="484" cy="234" r="4" fill="#4A3226"/><path d="M484 240 l0 10" stroke="#4A3226" stroke-width="2"/><path d="M477 256 Q484 274 491 256 Q484 250 477 256z" fill="#4A3226" opacity="0.9"/></g></g></g><ellipse cx="450" cy="1120" rx="330" ry="18" fill="#000" opacity="0.12" filter="url(#soft)"/><path d="M450 170 V1090" stroke="#B7945A" stroke-width="1.6" opacity="0.35" stroke-dasharray="1 7"/><g fill="none" stroke="#B7945A" opacity="0.55" stroke-width="1.4"><path d="M60 100 V60 H132"/><path d="M768 60 H840 V100"/><path d="M60 1100 V1140 H132"/><path d="M768 1140 H840 V1100"/></g><text x="450" y="1168" text-anchor="middle" font-family="Georgia, serif" font-size="17" letter-spacing="4.6" fill="#B7945A" opacity="0.9">VIRAAS · COUPLE EDIT · LAKE-PALACE NIGHT RECEPTION</text></svg>