<svg xmlns="http://www.w3.org/2000/svg" viewBox="0 0 900 1200" width="900" height="1200"><title>Monsoon Pastel Engagement — VIRAAS Couple Edit</title><defs><pattern id="f-cvgddlkwh" patternUnits="userSpaceOnUse" width="24" height="24"><path d="M0 6 H24 M0 14 H24 M0 22 H24" stroke="#8B7C5E" stroke-width="0.8" opacity="0.18" fill="none"/><path d="M6 0 V24 M14 0 V24 M22 0 V24" stroke="#8B7C5E" stroke-width="0.6" opacity="0.13" fill="none"/></pattern><pattern id="k-cvgddlkwh" patternUnits="userSpaceOnUse" width="30" height="30"><g fill="#F3CBA6" opacity="0.6"><circle cx="7" cy="7" r="1.8"/><circle cx="22" cy="22" r="1.8"/><path d="M15 12 l3 3 -3 3 -3 -3z"/></g></pattern><pattern id="f-cvgddlkwm" patternUnits="userSpaceOnUse" width="24" height="24"><path d="M-8 32 L32 -8" stroke="#3c3c3c" stroke-width="9" opacity="0.12"/><path d="M-8 12 L12 -8" stroke="#3c3c3c" stroke-width="5" opacity="0.08"/></pattern><pattern id="k-cvgddlkwm" patternUnits="userSpaceOnUse" width="30" height="30"><g fill="#4A3226" opacity="0.6"><circle cx="7" cy="7" r="1.8"/><circle cx="22" cy="22" r="1.8"/><path d="M15 12 l3 3 -3 3 -3 -3z"/></g></pattern><filter id="soft"><feGaussianBlur stdDeviation="14"/></filter></defs><rect width="900" height="1200" fill="#F4ECDC"/><g opacity="0.5"><circle cx="70" cy="120" r="11" fill="#E39B45"/><circle cx="70" cy="120" r="4" fill="#C8711F"/><circle cx="166" cy="132" r="11" fill="#E39B45"/><circle cx="166" cy="132" r="4" fill="#C8711F"/><circle cx="262" cy="144" r="11" fill="#E39B45"/><circle cx="262" cy="144" r="4" fill="#C8711F"/><circle cx="358" cy="120" r="11" fill="#E39B45"/><circle cx="358" cy="120" r="4" fill="#C8711F"/><circle cx="454" cy="132" r="11" fill="#E39B45"/><circle cx="454" cy="132" r="4" fill="#C8711F"/><circle cx="550" cy="144" r="11" fill="#E39B45"/><circle cx="550" cy="144" r="4" fill="#C8711F"/><circle cx="646" cy="120" r="11" fill="#E39B45"/><circle cx="646" cy="120" r="4" fill="#C8711F"/><circle cx="742" cy="132" r="11" fill="#E39B45"/><circle cx="742" cy="132" r="4" fill="#C8711F"/><circle cx="838" cy="144" r="11" fill="#E39B45"/><circle cx="838" cy="144" r="4" fill="#C8711F"/><path d="M70 120 Q450 176 830 120" stroke="#A89163" stroke-width="2" fill="none"/></g><g transform="translate(-80 40) scale(0.66)"><g><ellipse cx="450" cy="234" rx="34" ry="39" fill="#C9B092"/><path d="M437 260 h26 v46 h-26z" fill="#bda486"/><path d="M284 306 q-30 120 -18 240 l14 -2 q-8 -112 18 -224z" fill="#C9B092" opacity="0.95"/><path d="M616 306 q30 120 18 240 l-14 -2 q8 -112 -18 -224z" fill="#C9B092" opacity="0.95"/><path d="M278 300 Q270 420 334 510 Q328 550 300 600 L600 600 Q572 550 566 510 Q630 420 622 300 Z" fill="#C9B092"/></g>
  <clipPath id="cc-cvgddlkwh-1"><path d="M340 300 Q450 270 560 300 L572 900 Q450 928 328 900 Z"/></clipPath><path d="M340 300 Q450 270 560 300 L572 900 Q450 928 328 900 Z" fill="#A9C4D4" stroke="#8faaba" stroke-width="1.6" stroke-opacity="0.55"/><g clip-path="url(#cc-cvgddlkwh-1)"><path d="M340 300 Q450 270 560 300 L572 900 Q450 928 328 900 Z" fill="url(#f-cvgddlkwh)"/><path d="M340 300 Q450 270 560 300 L572 900 Q450 928 328 900 Z" fill="url(#k-cvgddlkwh)" opacity="0.72"/></g>
  <path d="M450 300 V450" fill="none" stroke="#F3CBA6" stroke-width="6" stroke-linecap="round"/><path d="M336 872 Q450 900 566 872" fill="none" stroke="url(#k-cvgddlkwh)" stroke-width="26" stroke-linecap="round" opacity="0.95"/>
  <g><path d="M368 906 q-4 70 0 146" stroke="#C9B092" stroke-width="26" fill="none" opacity="0.92"/><path d="M518 906 q-4 70 0 146" stroke="#C9B092" stroke-width="26" fill="none" opacity="0.92"/></g>
  <clipPath id="cc-cvgddlkwh-2"><path d="M368 902 q-6 90 -2 148 l30 2 q2 -78 8 -148z"/></clipPath><path d="M368 902 q-6 90 -2 148 l30 2 q2 -78 8 -148z" fill="#A9C4D4" stroke="#8faaba" stroke-width="1.6" stroke-opacity="0.55"/><g clip-path="url(#cc-cvgddlkwh-2)"><path d="M368 902 q-6 90 -2 148 l30 2 q2 -78 8 -148z" fill="url(#f-cvgddlkwh)"/><path d="M368 902 q-6 90 -2 148 l30 2 q2 -78 8 -148z" fill="url(#k-cvgddlkwh)" opacity="0.72"/></g>
  <clipPath id="cc-cvgddlkwh-3"><path d="M496 902 q6 90 2 148 l-30 2 q-2 -78 -8 -148z"/></clipPath><path d="M496 902 q6 90 2 148 l-30 2 q-2 -78 -8 -148z" fill="#A9C4D4" stroke="#8faaba" stroke-width="1.6" stroke-opacity="0.55"/><g clip-path="url(#cc-cvgddlkwh-3)"><path d="M496 902 q6 90 2 148 l-30 2 q-2 -78 -8 -148z" fill="url(#f-cvgddlkwh)"/><path d="M496 902 q6 90 2 148 l-30 2 q-2 -78 -8 -148z" fill="url(#k-cvgddlkwh)" opacity="0.72"/></g>
  <g fill="#2A2E2C" opacity="0.95"><path d="M392 1072 q-16 18 6 24 h46 q10 -12 -4 -24z"/><path d="M508 1072 q16 18 -6 24 h-46 q-10 -12 4 -24z"/></g><g><g><circle cx="416" cy="234" r="4" fill="#F3CBA6"/><path d="M416 240 l0 10" stroke="#F3CBA6" stroke-width="2"/><path d="M409 256 Q416 274 423 256 Q416 250 409 256z" fill="#F3CBA6" opacity="0.9"/></g><g><circle cx="484" cy="234" r="4" fill="#F3CBA6"/><path d="M484 240 l0 10" stroke="#F3CBA6" stroke-width="2"/><path d="M477 256 Q484 274 491 256 Q484 250 477 256z" fill="#F3CBA6" opacity="0.9"/></g></g></g><g transform="translate(110 40) scale(0.64)"><g><ellipse cx="450" cy="234" rx="34" ry="39" fill="#C9B092"/><path d="M437 260 h26 v46 h-26z" fill="#bda486"/><path d="M284 306 q-30 120 -18 240 l14 -2 q-8 -112 18 -224z" fill="#C9B092" opacity="0.95"/><path d="M616 306 q30 120 18 240 l-14 -2 q8 -112 -18 -224z" fill="#C9B092" opacity="0.95"/><path d="M278 300 Q270 420 334 510 Q328 550 300 600 L600 600 Q572 550 566 510 Q630 420 622 300 Z" fill="#C9B092"/></g>
  <clipPath id="cc-cvgddlkwm-1"><path d="M332 300 Q450 268 568 300 L588 760 Q450 792 312 760 Z"/></clipPath><path d="M332 300 Q450 268 568 300 L588 760 Q450 792 312 760 Z" fill="#141414" stroke="#000000" stroke-width="1.6" stroke-opacity="0.55"/><g clip-path="url(#cc-cvgddlkwm-1)"><path d="M332 300 Q450 268 568 300 L588 760 Q450 792 312 760 Z" fill="url(#f-cvgddlkwm)"/><path d="M332 300 Q450 268 568 300 L588 760 Q450 792 312 760 Z" fill="url(#k-cvgddlkwm)" opacity="0.72"/></g>
  <path d="M450 300 V470" fill="none" stroke="#4A3226" stroke-width="6" stroke-linecap="round"/>
  <circle cx="450" cy="330" r="3.4" fill="#4A3226"/><circle cx="450" cy="370" r="3.4" fill="#4A3226"/><circle cx="450" cy="410" r="3.4" fill="#4A3226"/><circle cx="450" cy="450" r="3.4" fill="#4A3226"/>
  <clipPath id="cc-cvgddlkwm-2"><path d="M330 302 q-30 6 -34 40 l16 240 l34 -6 z"/></clipPath><path d="M330 302 q-30 6 -34 40 l16 240 l34 -6 z" fill="#2e2e2e" stroke="#000000" stroke-width="1.6" stroke-opacity="0.55"/><g clip-path="url(#cc-cvgddlkwm-2)"><path d="M330 302 q-30 6 -34 40 l16 240 l34 -6 z" fill="url(#f-cvgddlkwm)"/><path d="M330 302 q-30 6 -34 40 l16 240 l34 -6 z" fill="url(#k-cvgddlkwm)" opacity="0.72"/></g>
  <clipPath id="cc-cvgddlkwm-3"><path d="M570 302 q30 6 34 40 l-16 240 l-34 -6 z"/></clipPath><path d="M570 302 q30 6 34 40 l-16 240 l-34 -6 z" fill="#2e2e2e" stroke="#000000" stroke-width="1.6" stroke-opacity="0.55"/><g clip-path="url(#cc-cvgddlkwm-3)"><path d="M570 302 q30 6 34 40 l-16 240 l-34 -6 z" fill="url(#f-cvgddlkwm)"/><path d="M570 302 q30 6 34 40 l-16 240 l-34 -6 z" fill="url(#k-cvgddlkwm)" opacity="0.72"/></g>
  <clipPath id="cc-cvgddlkwm-4"><path d="M338 760 Q450 788 562 760 L584 1054 Q450 1078 316 1054 Z"/></clipPath><path d="M338 760 Q450 788 562 760 L584 1054 Q450 1078 316 1054 Z" fill="#141414" stroke="#000000" stroke-width="1.6" stroke-opacity="0.55"/><g clip-path="url(#cc-cvgddlkwm-4)"><path d="M338 760 Q450 788 562 760 L584 1054 Q450 1078 316 1054 Z" fill="url(#f-cvgddlkwm)"/><path d="M338 760 Q450 788 562 760 L584 1054 Q450 1078 316 1054 Z" fill="url(#k-cvgddlkwm)" opacity="0.72"/></g>
  <clipPath id="cc-cvgddlkwm-5"><path d="M568 300 Q648 360 690 520 Q720 660 690 800 L636 760 Q654 600 606 460 Q576 372 540 340Z"/></clipPath><path d="M568 300 Q648 360 690 520 Q720 660 690 800 L636 760 Q654 600 606 460 Q576 372 540 340Z" fill="#2e2e2e" stroke="#000000" stroke-width="1.6" stroke-opacity="0.55"/><g clip-path="url(#cc-cvgddlkwm-5)"><path d="M568 300 Q648 360 690 520 Q720 660 690 800 L636 760 Q654 600 606 460 Q576 372 540 340Z" fill="url(#f-cvgddlkwm)"/><path d="M568 300 Q648 360 690 520 Q720 660 690 800 L636 760 Q654 600 606 460 Q576 372 540 340Z" fill="url(#k-cvgddlkwm)" opacity="0.72"/></g>
  <path d="M568 300 Q648 360 690 520 Q720 660 690 800" fill="none" stroke="#4A3226" stroke-width="8" stroke-linecap="round"/>
  <path d="M360 720 Q450 700 540 722" fill="none" stroke="url(#k-cvgddlkwm)" stroke-width="20" stroke-linecap="round" opacity="0.95"/>
  <g><path d="M424 1040 q-6 120 -10 4 l24 0 q4 -5 6 -10z" fill="#C9B092"/><path d="M476 1040 q6 120 10 4 l-24 0 q-4 -5 -6 -10z" fill="#C9B092"/></g><g fill="#2A2E2C" opacity="0.95"><path d="M392 1072 q-16 18 6 24 h46 q10 -12 -4 -24z"/><path d="M508 1072 q16 18 -6 24 h-46 q-10 -12 4 -24z"/></g><g><g><circle cx="416" cy="234" r="4" fill="#4A3226"/><path d="M416 240 l0 10" stroke="#4A3226" stroke-width="2"/><path d="M409 256 Q416 274 423 256 Q416 250 409 256z" fill="#4A3226" opacity="0.9"/></g><g><circle cx="484" cy="234" r="4" fill="#4A3226"/><path d="M484 240 l0 10" stroke="#4A3226" stroke-width="2"/><path d="M477 256 Q484 274 491 256 Q484 250 477 256z" fill="#4A3226" opacity="0.9"/></g></g></g><ellipse cx="450" cy="1120" rx="330" ry="18" fill="#000" opacity="0.12" filter="url(#soft)"/><path d="M450 170 V1090" stroke="#B7945A" stroke-width="1.6" opacity="0.35" stroke-dasharray="1 7"/><g fill="none" stroke="#B7945A" opacity="0.55" stroke-width="1.4"><path d="M60 100 V60 H132"/><path d="M768 60 H840 V100"/><path d="M60 1100 V1140 H132"/><path d="M768 1140 H840 V1100"/></g><text x="450" y="1168" text-anchor="middle" font-family="Georgia, serif" font-size="17" letter-spacing="4.6" fill="#B7945A" opacity="0.9">VIRAAS · COUPLE EDIT · MONSOON PASTEL ENGAGEMENT</text></svg>